<svg width="396" height="539" viewBox="0 0 396 539" fill="none" xmlns="http://www.w3.org/2000/svg">
<g filter="url(#filter0_d_1219_6550)">
<g clip-path="url(#clip0_1219_6550)">
<path d="M198 317C264.274 317 318 263.274 318 197C318 130.726 264.274 77 198 77C131.726 77 78 130.726 78 197C78 263.274 131.726 317 198 317Z" fill="url(#paint0_linear_1219_6550)"/>
<g filter="url(#filter1_d_1219_6550)">
<rect x="137" y="111.556" width="124.537" height="155.029" rx="16" fill="white"/>
</g>
<rect x="148" y="131.556" width="50" height="9.8" rx="4.9" fill="#011625"/>
<rect x="148" y="159.356" width="100" height="9.8" rx="4.9" fill="#D5D5D5"/>
<rect x="148" y="187.156" width="100" height="9.8" rx="4.9" fill="#D5D5D5"/>
<rect x="148" y="214.956" width="100" height="9.8" rx="4.9" fill="#D5D5D5"/>
<rect x="148" y="242.756" width="100" height="9.8" rx="4.9" fill="#D5D5D5"/>
<g filter="url(#filter2_d_1219_6550)">
<path d="M336.15 94.4241H276.069C273.27 94.4241 271 96.8126 271 99.759V129.478C271 132.424 273.27 134.813 276.069 134.813H336.15C338.95 134.813 341.219 132.424 341.219 129.478V99.759C341.219 96.8126 338.95 94.4241 336.15 94.4241Z" fill="white"/>
</g>
<path d="M286 121C289.314 121 292 118.314 292 115C292 111.686 289.314 109 286 109C282.686 109 280 111.686 280 115C280 118.314 282.686 121 286 121Z" fill="#CCC6D9"/>
<rect x="300" y="109" width="32" height="12" rx="6" fill="#D5D5D5"/>
<path fill-rule="evenodd" clip-rule="evenodd" d="M233.11 273.563C245.989 273.563 257.959 269.667 267.905 262.989L308.604 301.841L323.365 284.715L284.092 247.226C291.345 237.018 295.61 224.539 295.61 211.063C295.61 176.545 267.627 148.563 233.11 148.563C198.592 148.563 170.61 176.545 170.61 211.063C170.61 245.581 198.592 273.563 233.11 273.563ZM286.419 211.063C286.419 240.286 262.728 263.977 233.505 263.977C204.282 263.977 180.592 240.286 180.592 211.063C180.592 181.84 204.282 158.15 233.505 158.15C262.728 158.15 286.419 181.84 286.419 211.063Z" fill="#CCC6D9"/>
<g filter="url(#filter3_b_1219_6550)">
<path d="M233.5 265C263.6 265 288 240.823 288 211C288 181.177 263.6 157 233.5 157C203.4 157 179 181.177 179 211C179 240.823 203.4 265 233.5 265Z" fill="white" fill-opacity="0.3"/>
</g>
<path d="M242.923 211L256.112 197.862C257.348 196.562 258.025 194.835 257.999 193.047C257.974 191.259 257.248 189.552 255.976 188.287C254.704 187.023 252.986 186.301 251.187 186.276C249.388 186.251 247.65 186.923 246.342 188.151L233.124 201.289L219.935 188.151C219.3 187.484 218.537 186.95 217.691 186.58C216.845 186.211 215.933 186.014 215.009 186.001C214.085 185.988 213.168 186.159 212.312 186.504C211.456 186.85 210.678 187.362 210.024 188.012C209.371 188.661 208.855 189.434 208.508 190.285C208.16 191.136 207.988 192.048 208.001 192.967C208.014 193.885 208.212 194.791 208.584 195.632C208.955 196.473 209.493 197.231 210.165 197.862L223.376 211L210.165 224.138C209.493 224.769 208.955 225.527 208.584 226.368C208.212 227.209 208.014 228.115 208.001 229.033C207.988 229.952 208.16 230.863 208.508 231.715C208.855 232.566 209.371 233.339 210.024 233.988C210.678 234.637 211.456 235.15 212.312 235.496C213.168 235.841 214.085 236.012 215.009 235.999C215.933 235.986 216.845 235.789 217.691 235.42C218.537 235.05 219.3 234.516 219.935 233.849L233.153 220.711L246.372 233.849C247.692 235.004 249.405 235.616 251.164 235.559C252.922 235.503 254.592 234.782 255.834 233.544C257.076 232.305 257.796 230.643 257.848 228.896C257.9 227.148 257.279 225.446 256.112 224.138L242.923 211Z" fill="#FF4040"/>
<path d="M308.601 301.843L323.362 284.717L325.585 286.84C327.742 288.899 329.033 291.775 329.175 294.836C329.317 297.898 328.297 300.893 326.341 303.163V303.163C324.384 305.433 321.651 306.792 318.742 306.941C315.833 307.09 312.987 306.017 310.83 303.958L308.607 301.836L308.601 301.843Z" fill="#E1DCEB"/>
<path fill-rule="evenodd" clip-rule="evenodd" d="M104.314 139.172C104.296 137.746 104.117 136.307 103.759 134.859C102.504 129.777 96.9064 126.514 90.9484 125.747C84.9927 124.98 78.7993 126.726 76.4123 131.147C75.047 133.674 74.8587 135.852 75.4166 137.689C75.9721 139.516 77.2903 141.03 79.0793 142.211C84.0675 145.498 92.8034 146.169 96.7887 144.795C98.6319 144.158 100.433 143.391 102.186 142.513C101.184 148.259 97.4477 153.702 92.4619 158.607C81.6264 169.268 64.8117 177.36 55.6546 180.335C55.1626 180.495 54.8895 181.04 55.0425 181.554C55.1955 182.068 55.7181 182.356 56.2101 182.196C65.5485 179.162 82.6905 170.898 93.7402 160.026C99.4487 154.411 103.516 148.089 104.211 141.443C117.116 134.242 127.713 121.177 136.774 110.181C137.111 109.776 137.066 109.159 136.675 108.807C136.284 108.458 135.696 108.502 135.359 108.91C126.668 119.456 116.581 132 104.314 139.172ZM102.438 140.217C102.509 138.614 102.358 136.986 101.951 135.344C100.866 130.945 95.8776 128.344 90.72 127.68C87.5585 127.274 84.3077 127.609 81.7583 128.799C80.1552 129.546 78.8345 130.63 78.0389 132.105C76.9937 134.04 76.7677 135.695 77.1961 137.099C77.6245 138.513 78.6887 139.649 80.0752 140.561C84.6208 143.558 92.575 144.195 96.2025 142.943C98.3423 142.206 100.419 141.286 102.438 140.217Z" fill="#011625"/>
<circle cx="333" cy="232" r="6" fill="#417BA4"/>
<path fill-rule="evenodd" clip-rule="evenodd" d="M106.384 273.394C107.455 272.993 108.582 272.459 109.451 271.686C110.483 270.769 110.903 269.587 111.184 268.343C111.546 266.744 111.691 265.042 112.13 263.441C112.292 262.846 112.605 262.621 112.739 262.522C113.078 262.27 113.421 262.202 113.743 262.228C114.125 262.257 114.65 262.409 114.996 263.083C115.045 263.18 115.109 263.327 115.152 263.528C115.183 263.676 115.204 264.137 115.237 264.328C115.32 264.797 115.389 265.266 115.455 265.737C115.672 267.306 115.797 268.639 116.483 270.081C117.414 272.038 118.347 273.235 119.612 273.766C120.836 274.279 122.298 274.182 124.167 273.78C124.345 273.735 124.521 273.696 124.695 273.664C125.519 273.513 126.307 274.082 126.469 274.946C126.631 275.809 126.107 276.65 125.29 276.84C125.12 276.88 124.952 276.917 124.786 276.952C122.26 277.61 119.336 279.958 117.637 282.014C117.114 282.648 116.347 284.421 115.565 285.551C114.988 286.386 114.339 286.935 113.794 287.13C113.429 287.261 113.122 287.24 112.868 287.174C112.498 287.079 112.192 286.868 111.957 286.533C111.829 286.35 111.71 286.104 111.653 285.791C111.626 285.64 111.623 285.257 111.624 285.083C111.464 284.506 111.269 283.943 111.127 283.36C110.788 281.971 110.123 281.092 109.333 279.93C108.594 278.843 107.8 278.159 106.636 277.614C106.485 277.575 105.263 277.26 104.832 277.08C104.202 276.815 103.901 276.371 103.792 276.132C103.607 275.727 103.588 275.373 103.625 275.077C103.68 274.641 103.866 274.268 104.196 273.967C104.4 273.78 104.705 273.598 105.114 273.509C105.429 273.44 106.267 273.4 106.384 273.394ZM113.551 271.13C113.607 271.263 113.668 271.396 113.732 271.531C115.095 274.397 116.62 275.998 118.474 276.774L118.536 276.799C117.296 277.768 116.173 278.851 115.316 279.889C114.962 280.317 114.495 281.205 113.989 282.115C113.53 280.545 112.78 279.435 111.836 278.045C111.114 276.985 110.359 276.187 109.43 275.537C110.151 275.148 110.838 274.692 111.437 274.16C112.434 273.273 113.093 272.246 113.551 271.13Z" fill="#417BA4"/>
</g>
<path d="M104.521 423L101.017 416.64H100.033V423H95.9294V406.152H102.817C104.145 406.152 105.273 406.384 106.201 406.848C107.145 407.312 107.849 407.952 108.313 408.768C108.777 409.568 109.009 410.464 109.009 411.456C109.009 412.576 108.689 413.576 108.049 414.456C107.425 415.336 106.497 415.96 105.265 416.328L109.153 423H104.521ZM100.033 413.736H102.577C103.329 413.736 103.889 413.552 104.257 413.184C104.641 412.816 104.833 412.296 104.833 411.624C104.833 410.984 104.641 410.48 104.257 410.112C103.889 409.744 103.329 409.56 102.577 409.56H100.033V413.736ZM124.21 416.088C124.21 416.472 124.186 416.872 124.138 417.288H114.85C114.914 418.12 115.178 418.76 115.642 419.208C116.122 419.64 116.706 419.856 117.394 419.856C118.418 419.856 119.13 419.424 119.53 418.56H123.898C123.674 419.44 123.266 420.232 122.674 420.936C122.098 421.64 121.37 422.192 120.49 422.592C119.61 422.992 118.626 423.192 117.538 423.192C116.226 423.192 115.058 422.912 114.034 422.352C113.01 421.792 112.21 420.992 111.634 419.952C111.058 418.912 110.77 417.696 110.77 416.304C110.77 414.912 111.05 413.696 111.61 412.656C112.186 411.616 112.986 410.816 114.01 410.256C115.034 409.696 116.21 409.416 117.538 409.416C118.834 409.416 119.986 409.688 120.994 410.232C122.002 410.776 122.786 411.552 123.346 412.56C123.922 413.568 124.21 414.744 124.21 416.088ZM120.01 415.008C120.01 414.304 119.77 413.744 119.29 413.328C118.81 412.912 118.21 412.704 117.49 412.704C116.802 412.704 116.218 412.904 115.738 413.304C115.274 413.704 114.986 414.272 114.874 415.008H120.01ZM131.823 423.192C130.655 423.192 129.615 422.992 128.703 422.592C127.791 422.192 127.071 421.648 126.543 420.96C126.015 420.256 125.719 419.472 125.655 418.608H129.711C129.759 419.072 129.975 419.448 130.359 419.736C130.743 420.024 131.215 420.168 131.775 420.168C132.287 420.168 132.679 420.072 132.951 419.88C133.239 419.672 133.383 419.408 133.383 419.088C133.383 418.704 133.183 418.424 132.783 418.248C132.383 418.056 131.735 417.848 130.839 417.624C129.879 417.4 129.079 417.168 128.439 416.928C127.799 416.672 127.247 416.28 126.783 415.752C126.319 415.208 126.087 414.48 126.087 413.568C126.087 412.8 126.295 412.104 126.711 411.48C127.143 410.84 127.767 410.336 128.583 409.968C129.415 409.6 130.399 409.416 131.535 409.416C133.215 409.416 134.535 409.832 135.495 410.664C136.471 411.496 137.031 412.6 137.175 413.976H133.383C133.319 413.512 133.111 413.144 132.759 412.872C132.423 412.6 131.975 412.464 131.415 412.464C130.935 412.464 130.567 412.56 130.311 412.752C130.055 412.928 129.927 413.176 129.927 413.496C129.927 413.88 130.127 414.168 130.527 414.36C130.943 414.552 131.583 414.744 132.447 414.936C133.439 415.192 134.247 415.448 134.871 415.704C135.495 415.944 136.039 416.344 136.503 416.904C136.983 417.448 137.231 418.184 137.247 419.112C137.247 419.896 137.023 420.6 136.575 421.224C136.143 421.832 135.511 422.312 134.679 422.664C133.863 423.016 132.911 423.192 131.823 423.192ZM152.982 409.608V423H148.878V421.176C148.462 421.768 147.894 422.248 147.174 422.616C146.47 422.968 145.686 423.144 144.822 423.144C143.798 423.144 142.894 422.92 142.11 422.472C141.326 422.008 140.718 421.344 140.286 420.48C139.854 419.616 139.638 418.6 139.638 417.432V409.608H143.718V416.88C143.718 417.776 143.95 418.472 144.414 418.968C144.878 419.464 145.502 419.712 146.286 419.712C147.086 419.712 147.718 419.464 148.182 418.968C148.646 418.472 148.878 417.776 148.878 416.88V409.608H152.982ZM160.033 405.24V423H155.929V405.24H160.033ZM170.472 419.52V423H168.384C166.896 423 165.736 422.64 164.904 421.92C164.072 421.184 163.656 419.992 163.656 418.344V413.016H162.024V409.608H163.656V406.344H167.76V409.608H170.448V413.016H167.76V418.392C167.76 418.792 167.856 419.08 168.048 419.256C168.24 419.432 168.56 419.52 169.008 419.52H170.472ZM192.915 423H188.811L181.947 412.608V423H177.843V406.152H181.947L188.811 416.592V406.152H192.915V423ZM201.986 423.192C200.674 423.192 199.49 422.912 198.434 422.352C197.394 421.792 196.57 420.992 195.962 419.952C195.37 418.912 195.074 417.696 195.074 416.304C195.074 414.928 195.378 413.72 195.986 412.68C196.594 411.624 197.426 410.816 198.482 410.256C199.538 409.696 200.722 409.416 202.034 409.416C203.346 409.416 204.53 409.696 205.586 410.256C206.642 410.816 207.474 411.624 208.082 412.68C208.69 413.72 208.994 414.928 208.994 416.304C208.994 417.68 208.682 418.896 208.058 419.952C207.45 420.992 206.61 421.792 205.538 422.352C204.482 422.912 203.298 423.192 201.986 423.192ZM201.986 419.64C202.77 419.64 203.434 419.352 203.978 418.776C204.538 418.2 204.818 417.376 204.818 416.304C204.818 415.232 204.546 414.408 204.002 413.832C203.474 413.256 202.818 412.968 202.034 412.968C201.234 412.968 200.57 413.256 200.042 413.832C199.514 414.392 199.25 415.216 199.25 416.304C199.25 417.376 199.506 418.2 200.018 418.776C200.546 419.352 201.202 419.64 201.986 419.64ZM218.636 419.52V423H216.548C215.06 423 213.9 422.64 213.068 421.92C212.236 421.184 211.82 419.992 211.82 418.344V413.016H210.188V409.608H211.82V406.344H215.924V409.608H218.612V413.016H215.924V418.392C215.924 418.792 216.02 419.08 216.212 419.256C216.404 419.432 216.724 419.52 217.172 419.52H218.636ZM236.976 406.152V409.44H230.112V412.992H235.248V416.184H230.112V423H226.008V406.152H236.976ZM245.229 423.192C243.917 423.192 242.733 422.912 241.677 422.352C240.637 421.792 239.813 420.992 239.205 419.952C238.613 418.912 238.317 417.696 238.317 416.304C238.317 414.928 238.621 413.72 239.229 412.68C239.837 411.624 240.669 410.816 241.725 410.256C242.781 409.696 243.965 409.416 245.277 409.416C246.589 409.416 247.773 409.696 248.829 410.256C249.885 410.816 250.717 411.624 251.325 412.68C251.933 413.72 252.237 414.928 252.237 416.304C252.237 417.68 251.925 418.896 251.301 419.952C250.693 420.992 249.853 421.792 248.781 422.352C247.725 422.912 246.541 423.192 245.229 423.192ZM245.229 419.64C246.013 419.64 246.677 419.352 247.221 418.776C247.781 418.2 248.061 417.376 248.061 416.304C248.061 415.232 247.789 414.408 247.245 413.832C246.717 413.256 246.061 412.968 245.277 412.968C244.477 412.968 243.813 413.256 243.285 413.832C242.757 414.392 242.493 415.216 242.493 416.304C242.493 417.376 242.749 418.2 243.261 418.776C243.789 419.352 244.445 419.64 245.229 419.64ZM267.638 409.608V423H263.534V421.176C263.118 421.768 262.55 422.248 261.83 422.616C261.126 422.968 260.342 423.144 259.478 423.144C258.454 423.144 257.55 422.92 256.766 422.472C255.982 422.008 255.374 421.344 254.942 420.48C254.51 419.616 254.294 418.6 254.294 417.432V409.608H258.374V416.88C258.374 417.776 258.606 418.472 259.07 418.968C259.534 419.464 260.158 419.712 260.942 419.712C261.742 419.712 262.374 419.464 262.838 418.968C263.302 418.472 263.534 417.776 263.534 416.88V409.608H267.638ZM278.746 409.464C280.314 409.464 281.562 409.976 282.49 411C283.434 412.008 283.906 413.4 283.906 415.176V423H279.826V415.728C279.826 414.832 279.594 414.136 279.13 413.64C278.666 413.144 278.042 412.896 277.258 412.896C276.474 412.896 275.85 413.144 275.386 413.64C274.922 414.136 274.69 414.832 274.69 415.728V423H270.586V409.608H274.69V411.384C275.106 410.792 275.666 410.328 276.37 409.992C277.074 409.64 277.866 409.464 278.746 409.464ZM285.942 416.28C285.942 414.904 286.198 413.696 286.71 412.656C287.238 411.616 287.95 410.816 288.846 410.256C289.742 409.696 290.742 409.416 291.846 409.416C292.726 409.416 293.526 409.6 294.246 409.968C294.982 410.336 295.558 410.832 295.974 411.456V405.24H300.078V423H295.974V421.08C295.59 421.72 295.038 422.232 294.318 422.616C293.614 423 292.79 423.192 291.846 423.192C290.742 423.192 289.742 422.912 288.846 422.352C287.95 421.776 287.238 420.968 286.71 419.928C286.198 418.872 285.942 417.656 285.942 416.28ZM295.974 416.304C295.974 415.28 295.686 414.472 295.11 413.88C294.55 413.288 293.862 412.992 293.046 412.992C292.23 412.992 291.534 413.288 290.958 413.88C290.398 414.456 290.118 415.256 290.118 416.28C290.118 417.304 290.398 418.12 290.958 418.728C291.534 419.32 292.23 419.616 293.046 419.616C293.862 419.616 294.55 419.32 295.11 418.728C295.686 418.136 295.974 417.328 295.974 416.304Z" fill="#303030"/>
<path d="M82.9534 447.88L79.6574 459H77.5934L75.2574 450.584L72.7774 459L70.7294 459.016L67.5774 447.88H69.5134L71.8174 456.936L74.3134 447.88H76.3614L78.6814 456.888L81.0014 447.88H82.9534ZM89.0178 450.04C89.6898 450.04 90.2871 450.184 90.8098 450.472C91.3431 450.76 91.7591 451.187 92.0578 451.752C92.3671 452.317 92.5218 453 92.5218 453.8V459H90.7138V454.072C90.7138 453.283 90.5165 452.68 90.1218 452.264C89.7271 451.837 89.1885 451.624 88.5058 451.624C87.8231 451.624 87.2791 451.837 86.8738 452.264C86.4791 452.68 86.2818 453.283 86.2818 454.072V459H84.4578V447.16H86.2818V451.208C86.5911 450.835 86.9805 450.547 87.4498 450.344C87.9298 450.141 88.4525 450.04 89.0178 450.04ZM98.6724 459.144C97.8404 459.144 97.0884 458.957 96.4164 458.584C95.7444 458.2 95.2164 457.667 94.8324 456.984C94.4484 456.291 94.2564 455.491 94.2564 454.584C94.2564 453.688 94.4538 452.893 94.8484 452.2C95.2431 451.507 95.7818 450.973 96.4644 450.6C97.1471 450.227 97.9098 450.04 98.7524 450.04C99.5951 450.04 100.358 450.227 101.04 450.6C101.723 450.973 102.262 451.507 102.656 452.2C103.051 452.893 103.248 453.688 103.248 454.584C103.248 455.48 103.046 456.275 102.64 456.968C102.235 457.661 101.68 458.2 100.976 458.584C100.283 458.957 99.5151 459.144 98.6724 459.144ZM98.6724 457.56C99.1418 457.56 99.5791 457.448 99.9844 457.224C100.4 457 100.736 456.664 100.992 456.216C101.248 455.768 101.376 455.224 101.376 454.584C101.376 453.944 101.254 453.405 101.008 452.968C100.763 452.52 100.438 452.184 100.032 451.96C99.6271 451.736 99.1898 451.624 98.7204 451.624C98.2511 451.624 97.8138 451.736 97.4084 451.96C97.0138 452.184 96.6991 452.52 96.4644 452.968C96.2298 453.405 96.1124 453.944 96.1124 454.584C96.1124 455.533 96.3524 456.269 96.8324 456.792C97.3231 457.304 97.9364 457.56 98.6724 457.56ZM108.876 459.144C108.044 459.144 107.292 458.957 106.62 458.584C105.948 458.2 105.42 457.667 105.036 456.984C104.652 456.291 104.46 455.491 104.46 454.584C104.46 453.688 104.657 452.893 105.052 452.2C105.446 451.507 105.985 450.973 106.668 450.6C107.35 450.227 108.113 450.04 108.956 450.04C109.798 450.04 110.561 450.227 111.244 450.6C111.926 450.973 112.465 451.507 112.86 452.2C113.254 452.893 113.452 453.688 113.452 454.584C113.452 455.48 113.249 456.275 112.844 456.968C112.438 457.661 111.884 458.2 111.18 458.584C110.486 458.957 109.718 459.144 108.876 459.144ZM108.876 457.56C109.345 457.56 109.782 457.448 110.188 457.224C110.604 457 110.94 456.664 111.196 456.216C111.452 455.768 111.58 455.224 111.58 454.584C111.58 453.944 111.457 453.405 111.212 452.968C110.966 452.52 110.641 452.184 110.236 451.96C109.83 451.736 109.393 451.624 108.924 451.624C108.454 451.624 108.017 451.736 107.612 451.96C107.217 452.184 106.902 452.52 106.668 452.968C106.433 453.405 106.316 453.944 106.316 454.584C106.316 455.533 106.556 456.269 107.036 456.792C107.526 457.304 108.14 457.56 108.876 457.56ZM117.079 451.48C117.388 451.075 117.809 450.733 118.343 450.456C118.876 450.179 119.479 450.04 120.151 450.04C120.919 450.04 121.617 450.232 122.247 450.616C122.887 450.989 123.388 451.517 123.751 452.2C124.113 452.883 124.295 453.667 124.295 454.552C124.295 455.437 124.113 456.232 123.751 456.936C123.388 457.629 122.887 458.173 122.247 458.568C121.617 458.952 120.919 459.144 120.151 459.144C119.479 459.144 118.881 459.011 118.359 458.744C117.836 458.467 117.409 458.125 117.079 457.72V463.192H115.255V450.184H117.079V451.48ZM122.439 454.552C122.439 453.944 122.311 453.421 122.055 452.984C121.809 452.536 121.479 452.2 121.063 451.976C120.657 451.741 120.22 451.624 119.751 451.624C119.292 451.624 118.855 451.741 118.439 451.976C118.033 452.211 117.703 452.552 117.447 453C117.201 453.448 117.079 453.976 117.079 454.584C117.079 455.192 117.201 455.725 117.447 456.184C117.703 456.632 118.033 456.973 118.439 457.208C118.855 457.443 119.292 457.56 119.751 457.56C120.22 457.56 120.657 457.443 121.063 457.208C121.479 456.963 121.809 456.611 122.055 456.152C122.311 455.693 122.439 455.16 122.439 454.552ZM129.298 459.144C128.605 459.144 127.981 459.021 127.426 458.776C126.882 458.52 126.45 458.179 126.13 457.752C125.81 457.315 125.64 456.829 125.618 456.296H127.506C127.538 456.669 127.714 456.984 128.034 457.24C128.365 457.485 128.776 457.608 129.266 457.608C129.778 457.608 130.173 457.512 130.45 457.32C130.738 457.117 130.882 456.861 130.882 456.552C130.882 456.221 130.722 455.976 130.402 455.816C130.093 455.656 129.597 455.48 128.914 455.288C128.253 455.107 127.714 454.931 127.298 454.76C126.882 454.589 126.52 454.328 126.21 453.976C125.912 453.624 125.762 453.16 125.762 452.584C125.762 452.115 125.901 451.688 126.178 451.304C126.456 450.909 126.85 450.6 127.362 450.376C127.885 450.152 128.482 450.04 129.154 450.04C130.157 450.04 130.962 450.296 131.57 450.808C132.189 451.309 132.52 451.997 132.562 452.872H130.738C130.706 452.477 130.546 452.163 130.258 451.928C129.97 451.693 129.581 451.576 129.09 451.576C128.61 451.576 128.242 451.667 127.986 451.848C127.73 452.029 127.602 452.269 127.602 452.568C127.602 452.803 127.688 453 127.858 453.16C128.029 453.32 128.237 453.448 128.482 453.544C128.728 453.629 129.09 453.741 129.57 453.88C130.21 454.051 130.733 454.227 131.138 454.408C131.554 454.579 131.912 454.835 132.21 455.176C132.509 455.517 132.664 455.971 132.674 456.536C132.674 457.037 132.536 457.485 132.258 457.88C131.981 458.275 131.586 458.584 131.074 458.808C130.573 459.032 129.981 459.144 129.298 459.144ZM139.538 459.112C139.207 459.112 138.93 459 138.706 458.776C138.482 458.552 138.37 458.275 138.37 457.944C138.37 457.613 138.482 457.336 138.706 457.112C138.93 456.888 139.207 456.776 139.538 456.776C139.858 456.776 140.13 456.888 140.354 457.112C140.578 457.336 140.69 457.613 140.69 457.944C140.69 458.275 140.578 458.552 140.354 458.776C140.13 459 139.858 459.112 139.538 459.112ZM143.397 459.112C143.066 459.112 142.789 459 142.565 458.776C142.341 458.552 142.229 458.275 142.229 457.944C142.229 457.613 142.341 457.336 142.565 457.112C142.789 456.888 143.066 456.776 143.397 456.776C143.717 456.776 143.989 456.888 144.213 457.112C144.437 457.336 144.549 457.613 144.549 457.944C144.549 458.275 144.437 458.552 144.213 458.776C143.989 459 143.717 459.112 143.397 459.112ZM147.256 459.112C146.926 459.112 146.648 459 146.424 458.776C146.2 458.552 146.088 458.275 146.088 457.944C146.088 457.613 146.2 457.336 146.424 457.112C146.648 456.888 146.926 456.776 147.256 456.776C147.576 456.776 147.848 456.888 148.072 457.112C148.296 457.336 148.408 457.613 148.408 457.944C148.408 458.275 148.296 458.552 148.072 458.776C147.848 459 147.576 459.112 147.256 459.112ZM156.664 451.672V456.552C156.664 456.883 156.739 457.123 156.888 457.272C157.048 457.411 157.315 457.48 157.688 457.48H158.808V459H157.368C156.547 459 155.917 458.808 155.48 458.424C155.043 458.04 154.824 457.416 154.824 456.552V451.672H153.784V450.184H154.824V447.992H156.664V450.184H158.808V451.672H156.664ZM165.049 450.04C165.721 450.04 166.318 450.184 166.841 450.472C167.374 450.76 167.79 451.187 168.089 451.752C168.398 452.317 168.553 453 168.553 453.8V459H166.745V454.072C166.745 453.283 166.548 452.68 166.153 452.264C165.758 451.837 165.22 451.624 164.537 451.624C163.854 451.624 163.31 451.837 162.905 452.264C162.51 452.68 162.313 453.283 162.313 454.072V459H160.489V447.16H162.313V451.208C162.622 450.835 163.012 450.547 163.481 450.344C163.961 450.141 164.484 450.04 165.049 450.04ZM171.808 449.016C171.477 449.016 171.2 448.904 170.976 448.68C170.752 448.456 170.64 448.179 170.64 447.848C170.64 447.517 170.752 447.24 170.976 447.016C171.2 446.792 171.477 446.68 171.808 446.68C172.128 446.68 172.4 446.792 172.624 447.016C172.848 447.24 172.96 447.517 172.96 447.848C172.96 448.179 172.848 448.456 172.624 448.68C172.4 448.904 172.128 449.016 171.808 449.016ZM172.704 450.184V459H170.88V450.184H172.704ZM178.298 459.144C177.605 459.144 176.981 459.021 176.426 458.776C175.882 458.52 175.45 458.179 175.13 457.752C174.81 457.315 174.64 456.829 174.618 456.296H176.506C176.538 456.669 176.714 456.984 177.034 457.24C177.365 457.485 177.776 457.608 178.266 457.608C178.778 457.608 179.173 457.512 179.45 457.32C179.738 457.117 179.882 456.861 179.882 456.552C179.882 456.221 179.722 455.976 179.402 455.816C179.093 455.656 178.597 455.48 177.914 455.288C177.253 455.107 176.714 454.931 176.298 454.76C175.882 454.589 175.52 454.328 175.21 453.976C174.912 453.624 174.762 453.16 174.762 452.584C174.762 452.115 174.901 451.688 175.178 451.304C175.456 450.909 175.85 450.6 176.362 450.376C176.885 450.152 177.482 450.04 178.154 450.04C179.157 450.04 179.962 450.296 180.57 450.808C181.189 451.309 181.52 451.997 181.562 452.872H179.738C179.706 452.477 179.546 452.163 179.258 451.928C178.97 451.693 178.581 451.576 178.09 451.576C177.61 451.576 177.242 451.667 176.986 451.848C176.73 452.029 176.602 452.269 176.602 452.568C176.602 452.803 176.688 453 176.858 453.16C177.029 453.32 177.237 453.448 177.482 453.544C177.728 453.629 178.09 453.741 178.57 453.88C179.21 454.051 179.733 454.227 180.138 454.408C180.554 454.579 180.912 454.835 181.21 455.176C181.509 455.517 181.664 455.971 181.674 456.536C181.674 457.037 181.536 457.485 181.258 457.88C180.981 458.275 180.586 458.584 180.074 458.808C179.573 459.032 178.981 459.144 178.298 459.144ZM188.73 449.016C188.399 449.016 188.122 448.904 187.898 448.68C187.674 448.456 187.562 448.179 187.562 447.848C187.562 447.517 187.674 447.24 187.898 447.016C188.122 446.792 188.399 446.68 188.73 446.68C189.05 446.68 189.322 446.792 189.546 447.016C189.77 447.24 189.882 447.517 189.882 447.848C189.882 448.179 189.77 448.456 189.546 448.68C189.322 448.904 189.05 449.016 188.73 449.016ZM189.626 450.184V459H187.802V450.184H189.626ZM196.468 450.04C197.162 450.04 197.78 450.184 198.324 450.472C198.879 450.76 199.311 451.187 199.62 451.752C199.93 452.317 200.084 453 200.084 453.8V459H198.276V454.072C198.276 453.283 198.079 452.68 197.684 452.264C197.29 451.837 196.751 451.624 196.068 451.624C195.386 451.624 194.842 451.837 194.436 452.264C194.042 452.68 193.844 453.283 193.844 454.072V459H192.02V450.184H193.844V451.192C194.143 450.829 194.522 450.547 194.98 450.344C195.45 450.141 195.946 450.04 196.468 450.04ZM206.107 451.672H204.475V459H202.635V451.672H201.595V450.184H202.635V449.56C202.635 448.547 202.902 447.811 203.435 447.352C203.979 446.883 204.827 446.648 205.979 446.648V448.168C205.424 448.168 205.035 448.275 204.811 448.488C204.587 448.691 204.475 449.048 204.475 449.56V450.184H206.107V451.672ZM211.547 459.144C210.715 459.144 209.963 458.957 209.291 458.584C208.619 458.2 208.091 457.667 207.707 456.984C207.323 456.291 207.131 455.491 207.131 454.584C207.131 453.688 207.329 452.893 207.723 452.2C208.118 451.507 208.657 450.973 209.339 450.6C210.022 450.227 210.785 450.04 211.627 450.04C212.47 450.04 213.233 450.227 213.915 450.6C214.598 450.973 215.137 451.507 215.531 452.2C215.926 452.893 216.123 453.688 216.123 454.584C216.123 455.48 215.921 456.275 215.515 456.968C215.11 457.661 214.555 458.2 213.851 458.584C213.158 458.957 212.39 459.144 211.547 459.144ZM211.547 457.56C212.017 457.56 212.454 457.448 212.859 457.224C213.275 457 213.611 456.664 213.867 456.216C214.123 455.768 214.251 455.224 214.251 454.584C214.251 453.944 214.129 453.405 213.883 452.968C213.638 452.52 213.313 452.184 212.907 451.96C212.502 451.736 212.065 451.624 211.595 451.624C211.126 451.624 210.689 451.736 210.283 451.96C209.889 452.184 209.574 452.52 209.339 452.968C209.105 453.405 208.987 453.944 208.987 454.584C208.987 455.533 209.227 456.269 209.707 456.792C210.198 457.304 210.811 457.56 211.547 457.56ZM219.751 451.464C220.017 451.016 220.369 450.669 220.807 450.424C221.255 450.168 221.783 450.04 222.391 450.04V451.928H221.927C221.212 451.928 220.668 452.109 220.295 452.472C219.932 452.835 219.751 453.464 219.751 454.36V459H217.927V450.184H219.751V451.464ZM234.739 450.04C235.433 450.04 236.051 450.184 236.595 450.472C237.15 450.76 237.582 451.187 237.891 451.752C238.211 452.317 238.371 453 238.371 453.8V459H236.563V454.072C236.563 453.283 236.366 452.68 235.971 452.264C235.577 451.837 235.038 451.624 234.355 451.624C233.673 451.624 233.129 451.837 232.723 452.264C232.329 452.68 232.131 453.283 232.131 454.072V459H230.323V454.072C230.323 453.283 230.126 452.68 229.731 452.264C229.337 451.837 228.798 451.624 228.115 451.624C227.433 451.624 226.889 451.837 226.483 452.264C226.089 452.68 225.891 453.283 225.891 454.072V459H224.067V450.184H225.891V451.192C226.19 450.829 226.569 450.547 227.027 450.344C227.486 450.141 227.977 450.04 228.499 450.04C229.203 450.04 229.833 450.189 230.387 450.488C230.942 450.787 231.369 451.219 231.667 451.784C231.934 451.251 232.35 450.829 232.915 450.52C233.481 450.2 234.089 450.04 234.739 450.04ZM240.084 454.552C240.084 453.667 240.266 452.883 240.628 452.2C241.002 451.517 241.503 450.989 242.132 450.616C242.772 450.232 243.476 450.04 244.244 450.04C244.938 450.04 245.54 450.179 246.052 450.456C246.575 450.723 246.991 451.059 247.3 451.464V450.184H249.14V459H247.3V457.688C246.991 458.104 246.57 458.451 246.036 458.728C245.503 459.005 244.895 459.144 244.212 459.144C243.455 459.144 242.762 458.952 242.132 458.568C241.503 458.173 241.002 457.629 240.628 456.936C240.266 456.232 240.084 455.437 240.084 454.552ZM247.3 454.584C247.3 453.976 247.172 453.448 246.916 453C246.671 452.552 246.346 452.211 245.94 451.976C245.535 451.741 245.098 451.624 244.628 451.624C244.159 451.624 243.722 451.741 243.316 451.976C242.911 452.2 242.58 452.536 242.324 452.984C242.079 453.421 241.956 453.944 241.956 454.552C241.956 455.16 242.079 455.693 242.324 456.152C242.58 456.611 242.911 456.963 243.316 457.208C243.732 457.443 244.17 457.56 244.628 457.56C245.098 457.56 245.535 457.443 245.94 457.208C246.346 456.973 246.671 456.632 246.916 456.184C247.172 455.725 247.3 455.192 247.3 454.584ZM253.664 451.672V456.552C253.664 456.883 253.739 457.123 253.888 457.272C254.048 457.411 254.315 457.48 254.688 457.48H255.808V459H254.368C253.547 459 252.917 458.808 252.48 458.424C252.043 458.04 251.824 457.416 251.824 456.552V451.672H250.784V450.184H251.824V447.992H253.664V450.184H255.808V451.672H253.664ZM258.417 449.016C258.086 449.016 257.809 448.904 257.585 448.68C257.361 448.456 257.249 448.179 257.249 447.848C257.249 447.517 257.361 447.24 257.585 447.016C257.809 446.792 258.086 446.68 258.417 446.68C258.737 446.68 259.009 446.792 259.233 447.016C259.457 447.24 259.569 447.517 259.569 447.848C259.569 448.179 259.457 448.456 259.233 448.68C259.009 448.904 258.737 449.016 258.417 449.016ZM259.313 450.184V459H257.489V450.184H259.313ZM265.532 459.144C264.7 459.144 263.948 458.957 263.276 458.584C262.604 458.2 262.076 457.667 261.692 456.984C261.308 456.291 261.116 455.491 261.116 454.584C261.116 453.688 261.313 452.893 261.708 452.2C262.102 451.507 262.641 450.973 263.324 450.6C264.006 450.227 264.769 450.04 265.612 450.04C266.454 450.04 267.217 450.227 267.9 450.6C268.582 450.973 269.121 451.507 269.516 452.2C269.91 452.893 270.108 453.688 270.108 454.584C270.108 455.48 269.905 456.275 269.5 456.968C269.094 457.661 268.54 458.2 267.836 458.584C267.142 458.957 266.374 459.144 265.532 459.144ZM265.532 457.56C266.001 457.56 266.438 457.448 266.844 457.224C267.26 457 267.596 456.664 267.852 456.216C268.108 455.768 268.236 455.224 268.236 454.584C268.236 453.944 268.113 453.405 267.868 452.968C267.622 452.52 267.297 452.184 266.892 451.96C266.486 451.736 266.049 451.624 265.58 451.624C265.11 451.624 264.673 451.736 264.268 451.96C263.873 452.184 263.558 452.52 263.324 452.968C263.089 453.405 262.972 453.944 262.972 454.584C262.972 455.533 263.212 456.269 263.692 456.792C264.182 457.304 264.796 457.56 265.532 457.56ZM276.359 450.04C277.052 450.04 277.671 450.184 278.215 450.472C278.77 450.76 279.202 451.187 279.511 451.752C279.82 452.317 279.975 453 279.975 453.8V459H278.167V454.072C278.167 453.283 277.97 452.68 277.575 452.264C277.18 451.837 276.642 451.624 275.959 451.624C275.276 451.624 274.732 451.837 274.327 452.264C273.932 452.68 273.735 453.283 273.735 454.072V459H271.911V450.184H273.735V451.192C274.034 450.829 274.412 450.547 274.871 450.344C275.34 450.141 275.836 450.04 276.359 450.04ZM287.386 449.016C287.055 449.016 286.778 448.904 286.554 448.68C286.33 448.456 286.218 448.179 286.218 447.848C286.218 447.517 286.33 447.24 286.554 447.016C286.778 446.792 287.055 446.68 287.386 446.68C287.706 446.68 287.978 446.792 288.202 447.016C288.426 447.24 288.538 447.517 288.538 447.848C288.538 448.179 288.426 448.456 288.202 448.68C287.978 448.904 287.706 449.016 287.386 449.016ZM288.282 450.184V459H286.458V450.184H288.282ZM293.877 459.144C293.183 459.144 292.559 459.021 292.005 458.776C291.461 458.52 291.029 458.179 290.709 457.752C290.389 457.315 290.218 456.829 290.197 456.296H292.085C292.117 456.669 292.293 456.984 292.613 457.24C292.943 457.485 293.354 457.608 293.845 457.608C294.357 457.608 294.751 457.512 295.029 457.32C295.317 457.117 295.461 456.861 295.461 456.552C295.461 456.221 295.301 455.976 294.981 455.816C294.671 455.656 294.175 455.48 293.493 455.288C292.831 455.107 292.293 454.931 291.877 454.76C291.461 454.589 291.098 454.328 290.789 453.976C290.49 453.624 290.341 453.16 290.341 452.584C290.341 452.115 290.479 451.688 290.757 451.304C291.034 450.909 291.429 450.6 291.941 450.376C292.463 450.152 293.061 450.04 293.733 450.04C294.735 450.04 295.541 450.296 296.149 450.808C296.767 451.309 297.098 451.997 297.141 452.872H295.317C295.285 452.477 295.125 452.163 294.837 451.928C294.549 451.693 294.159 451.576 293.669 451.576C293.189 451.576 292.821 451.667 292.565 451.848C292.309 452.029 292.181 452.269 292.181 452.568C292.181 452.803 292.266 453 292.437 453.16C292.607 453.32 292.815 453.448 293.061 453.544C293.306 453.629 293.669 453.741 294.149 453.88C294.789 454.051 295.311 454.227 295.717 454.408C296.133 454.579 296.49 454.835 296.789 455.176C297.087 455.517 297.242 455.971 297.253 456.536C297.253 457.037 297.114 457.485 296.837 457.88C296.559 458.275 296.165 458.584 295.653 458.808C295.151 459.032 294.559 459.144 293.877 459.144ZM307.828 450.04C308.521 450.04 309.14 450.184 309.684 450.472C310.238 450.76 310.67 451.187 310.98 451.752C311.289 452.317 311.444 453 311.444 453.8V459H309.636V454.072C309.636 453.283 309.438 452.68 309.044 452.264C308.649 451.837 308.11 451.624 307.428 451.624C306.745 451.624 306.201 451.837 305.796 452.264C305.401 452.68 305.204 453.283 305.204 454.072V459H303.38V450.184H305.204V451.192C305.502 450.829 305.881 450.547 306.34 450.344C306.809 450.141 307.305 450.04 307.828 450.04ZM317.594 459.144C316.762 459.144 316.01 458.957 315.338 458.584C314.666 458.2 314.138 457.667 313.754 456.984C313.37 456.291 313.178 455.491 313.178 454.584C313.178 453.688 313.376 452.893 313.77 452.2C314.165 451.507 314.704 450.973 315.386 450.6C316.069 450.227 316.832 450.04 317.674 450.04C318.517 450.04 319.28 450.227 319.962 450.6C320.645 450.973 321.184 451.507 321.578 452.2C321.973 452.893 322.17 453.688 322.17 454.584C322.17 455.48 321.968 456.275 321.562 456.968C321.157 457.661 320.602 458.2 319.898 458.584C319.205 458.957 318.437 459.144 317.594 459.144ZM317.594 457.56C318.064 457.56 318.501 457.448 318.906 457.224C319.322 457 319.658 456.664 319.914 456.216C320.17 455.768 320.298 455.224 320.298 454.584C320.298 453.944 320.176 453.405 319.93 452.968C319.685 452.52 319.36 452.184 318.954 451.96C318.549 451.736 318.112 451.624 317.642 451.624C317.173 451.624 316.736 451.736 316.33 451.96C315.936 452.184 315.621 452.52 315.386 452.968C315.152 453.405 315.034 453.944 315.034 454.584C315.034 455.533 315.274 456.269 315.754 456.792C316.245 457.304 316.858 457.56 317.594 457.56ZM326.101 451.672V456.552C326.101 456.883 326.176 457.123 326.325 457.272C326.485 457.411 326.752 457.48 327.125 457.48H328.245V459H326.805C325.984 459 325.355 458.808 324.917 458.424C324.48 458.04 324.261 457.416 324.261 456.552V451.672H323.221V450.184H324.261V447.992H326.101V450.184H328.245V451.672H326.101ZM103.709 478.552C103.709 477.667 103.891 476.883 104.253 476.2C104.627 475.517 105.128 474.989 105.757 474.616C106.397 474.232 107.101 474.04 107.869 474.04C108.563 474.04 109.165 474.179 109.677 474.456C110.2 474.723 110.616 475.059 110.925 475.464V474.184H112.765V483H110.925V481.688C110.616 482.104 110.195 482.451 109.661 482.728C109.128 483.005 108.52 483.144 107.837 483.144C107.08 483.144 106.387 482.952 105.757 482.568C105.128 482.173 104.627 481.629 104.253 480.936C103.891 480.232 103.709 479.437 103.709 478.552ZM110.925 478.584C110.925 477.976 110.797 477.448 110.541 477C110.296 476.552 109.971 476.211 109.565 475.976C109.16 475.741 108.723 475.624 108.253 475.624C107.784 475.624 107.347 475.741 106.941 475.976C106.536 476.2 106.205 476.536 105.949 476.984C105.704 477.421 105.581 477.944 105.581 478.552C105.581 479.16 105.704 479.693 105.949 480.152C106.205 480.611 106.536 480.963 106.941 481.208C107.357 481.443 107.795 481.56 108.253 481.56C108.723 481.56 109.16 481.443 109.565 481.208C109.971 480.973 110.296 480.632 110.541 480.184C110.797 479.725 110.925 479.192 110.925 478.584ZM118.569 481.368L121.065 474.184H123.001L119.641 483H117.465L114.121 474.184H116.073L118.569 481.368ZM123.772 478.552C123.772 477.667 123.953 476.883 124.316 476.2C124.689 475.517 125.19 474.989 125.82 474.616C126.46 474.232 127.164 474.04 127.932 474.04C128.625 474.04 129.228 474.179 129.74 474.456C130.262 474.723 130.678 475.059 130.988 475.464V474.184H132.828V483H130.988V481.688C130.678 482.104 130.257 482.451 129.724 482.728C129.19 483.005 128.582 483.144 127.9 483.144C127.142 483.144 126.449 482.952 125.82 482.568C125.19 482.173 124.689 481.629 124.316 480.936C123.953 480.232 123.772 479.437 123.772 478.552ZM130.988 478.584C130.988 477.976 130.86 477.448 130.604 477C130.358 476.552 130.033 476.211 129.628 475.976C129.222 475.741 128.785 475.624 128.316 475.624C127.846 475.624 127.409 475.741 127.004 475.976C126.598 476.2 126.268 476.536 126.012 476.984C125.766 477.421 125.644 477.944 125.644 478.552C125.644 479.16 125.766 479.693 126.012 480.152C126.268 480.611 126.598 480.963 127.004 481.208C127.42 481.443 127.857 481.56 128.316 481.56C128.785 481.56 129.222 481.443 129.628 481.208C130.033 480.973 130.358 480.632 130.604 480.184C130.86 479.725 130.988 479.192 130.988 478.584ZM136.151 473.016C135.821 473.016 135.543 472.904 135.319 472.68C135.095 472.456 134.983 472.179 134.983 471.848C134.983 471.517 135.095 471.24 135.319 471.016C135.543 470.792 135.821 470.68 136.151 470.68C136.471 470.68 136.743 470.792 136.967 471.016C137.191 471.24 137.303 471.517 137.303 471.848C137.303 472.179 137.191 472.456 136.967 472.68C136.743 472.904 136.471 473.016 136.151 473.016ZM137.047 474.184V483H135.223V474.184H137.047ZM141.266 471.16V483H139.442V471.16H141.266ZM143.053 478.552C143.053 477.667 143.234 476.883 143.597 476.2C143.97 475.517 144.472 474.989 145.101 474.616C145.741 474.232 146.445 474.04 147.213 474.04C147.906 474.04 148.509 474.179 149.021 474.456C149.544 474.723 149.96 475.059 150.269 475.464V474.184H152.109V483H150.269V481.688C149.96 482.104 149.538 482.451 149.005 482.728C148.472 483.005 147.864 483.144 147.181 483.144C146.424 483.144 145.73 482.952 145.101 482.568C144.472 482.173 143.97 481.629 143.597 480.936C143.234 480.232 143.053 479.437 143.053 478.552ZM150.269 478.584C150.269 477.976 150.141 477.448 149.885 477C149.64 476.552 149.314 476.211 148.909 475.976C148.504 475.741 148.066 475.624 147.597 475.624C147.128 475.624 146.69 475.741 146.285 475.976C145.88 476.2 145.549 476.536 145.293 476.984C145.048 477.421 144.925 477.944 144.925 478.552C144.925 479.16 145.048 479.693 145.293 480.152C145.549 480.611 145.88 480.963 146.285 481.208C146.701 481.443 147.138 481.56 147.597 481.56C148.066 481.56 148.504 481.443 148.909 481.208C149.314 480.973 149.64 480.632 149.885 480.184C150.141 479.725 150.269 479.192 150.269 478.584ZM156.329 475.496C156.638 475.069 157.059 474.723 157.593 474.456C158.137 474.179 158.739 474.04 159.401 474.04C160.179 474.04 160.883 474.227 161.513 474.6C162.142 474.973 162.638 475.507 163.001 476.2C163.363 476.883 163.545 477.667 163.545 478.552C163.545 479.437 163.363 480.232 163.001 480.936C162.638 481.629 162.137 482.173 161.497 482.568C160.867 482.952 160.169 483.144 159.401 483.144C158.718 483.144 158.11 483.011 157.577 482.744C157.054 482.477 156.638 482.136 156.329 481.72V483H154.505V471.16H156.329V475.496ZM161.689 478.552C161.689 477.944 161.561 477.421 161.305 476.984C161.059 476.536 160.729 476.2 160.313 475.976C159.907 475.741 159.47 475.624 159.001 475.624C158.542 475.624 158.105 475.741 157.689 475.976C157.283 476.211 156.953 476.552 156.697 477C156.451 477.448 156.329 477.976 156.329 478.584C156.329 479.192 156.451 479.725 156.697 480.184C156.953 480.632 157.283 480.973 157.689 481.208C158.105 481.443 158.542 481.56 159.001 481.56C159.47 481.56 159.907 481.443 160.313 481.208C160.729 480.963 161.059 480.611 161.305 480.152C161.561 479.693 161.689 479.16 161.689 478.552ZM167.172 471.16V483H165.348V471.16H167.172ZM177.647 478.376C177.647 478.707 177.626 479.005 177.583 479.272H170.847C170.901 479.976 171.162 480.541 171.631 480.968C172.101 481.395 172.677 481.608 173.359 481.608C174.341 481.608 175.034 481.197 175.439 480.376H177.407C177.141 481.187 176.655 481.853 175.951 482.376C175.258 482.888 174.394 483.144 173.359 483.144C172.517 483.144 171.759 482.957 171.087 482.584C170.426 482.2 169.903 481.667 169.519 480.984C169.146 480.291 168.959 479.491 168.959 478.584C168.959 477.677 169.141 476.883 169.503 476.2C169.877 475.507 170.394 474.973 171.055 474.6C171.727 474.227 172.495 474.04 173.359 474.04C174.191 474.04 174.933 474.221 175.583 474.584C176.234 474.947 176.741 475.459 177.103 476.12C177.466 476.771 177.647 477.523 177.647 478.376ZM175.743 477.8C175.733 477.128 175.493 476.589 175.023 476.184C174.554 475.779 173.973 475.576 173.279 475.576C172.65 475.576 172.111 475.779 171.663 476.184C171.215 476.579 170.949 477.117 170.863 477.8H175.743ZM187.294 475.672H185.662V483H183.822V475.672H182.782V474.184H183.822V473.56C183.822 472.547 184.089 471.811 184.622 471.352C185.166 470.883 186.014 470.648 187.166 470.648V472.168C186.612 472.168 186.222 472.275 185.998 472.488C185.774 472.691 185.662 473.048 185.662 473.56V474.184H187.294V475.672ZM192.735 483.144C191.903 483.144 191.151 482.957 190.479 482.584C189.807 482.2 189.279 481.667 188.895 480.984C188.511 480.291 188.319 479.491 188.319 478.584C188.319 477.688 188.516 476.893 188.911 476.2C189.306 475.507 189.844 474.973 190.527 474.6C191.21 474.227 191.972 474.04 192.815 474.04C193.658 474.04 194.42 474.227 195.103 474.6C195.786 474.973 196.324 475.507 196.719 476.2C197.114 476.893 197.311 477.688 197.311 478.584C197.311 479.48 197.108 480.275 196.703 480.968C196.298 481.661 195.743 482.2 195.039 482.584C194.346 482.957 193.578 483.144 192.735 483.144ZM192.735 481.56C193.204 481.56 193.642 481.448 194.047 481.224C194.463 481 194.799 480.664 195.055 480.216C195.311 479.768 195.439 479.224 195.439 478.584C195.439 477.944 195.316 477.405 195.071 476.968C194.826 476.52 194.5 476.184 194.095 475.96C193.69 475.736 193.252 475.624 192.783 475.624C192.314 475.624 191.876 475.736 191.471 475.96C191.076 476.184 190.762 476.52 190.527 476.968C190.292 477.405 190.175 477.944 190.175 478.584C190.175 479.533 190.415 480.269 190.895 480.792C191.386 481.304 191.999 481.56 192.735 481.56ZM200.938 475.464C201.205 475.016 201.557 474.669 201.994 474.424C202.442 474.168 202.97 474.04 203.578 474.04V475.928H203.114C202.399 475.928 201.855 476.109 201.482 476.472C201.119 476.835 200.938 477.464 200.938 478.36V483H199.114V474.184H200.938V475.464ZM208.803 478.552C208.803 477.667 208.984 476.883 209.347 476.2C209.72 475.517 210.222 474.989 210.851 474.616C211.491 474.232 212.195 474.04 212.963 474.04C213.656 474.04 214.259 474.179 214.771 474.456C215.294 474.723 215.71 475.059 216.019 475.464V474.184H217.859V483H216.019V481.688C215.71 482.104 215.288 482.451 214.755 482.728C214.222 483.005 213.614 483.144 212.931 483.144C212.174 483.144 211.48 482.952 210.851 482.568C210.222 482.173 209.72 481.629 209.347 480.936C208.984 480.232 208.803 479.437 208.803 478.552ZM216.019 478.584C216.019 477.976 215.891 477.448 215.635 477C215.39 476.552 215.064 476.211 214.659 475.976C214.254 475.741 213.816 475.624 213.347 475.624C212.878 475.624 212.44 475.741 212.035 475.976C211.63 476.2 211.299 476.536 211.043 476.984C210.798 477.421 210.675 477.944 210.675 478.552C210.675 479.16 210.798 479.693 211.043 480.152C211.299 480.611 211.63 480.963 212.035 481.208C212.451 481.443 212.888 481.56 213.347 481.56C213.816 481.56 214.254 481.443 214.659 481.208C215.064 480.973 215.39 480.632 215.635 480.184C215.891 479.725 216.019 479.192 216.019 478.584ZM235.083 474.04C235.776 474.04 236.395 474.184 236.939 474.472C237.494 474.76 237.926 475.187 238.235 475.752C238.555 476.317 238.715 477 238.715 477.8V483H236.907V478.072C236.907 477.283 236.71 476.68 236.315 476.264C235.92 475.837 235.382 475.624 234.699 475.624C234.016 475.624 233.472 475.837 233.067 476.264C232.672 476.68 232.475 477.283 232.475 478.072V483H230.667V478.072C230.667 477.283 230.47 476.68 230.075 476.264C229.68 475.837 229.142 475.624 228.459 475.624C227.776 475.624 227.232 475.837 226.827 476.264C226.432 476.68 226.235 477.283 226.235 478.072V483H224.411V474.184H226.235V475.192C226.534 474.829 226.912 474.547 227.371 474.344C227.83 474.141 228.32 474.04 228.843 474.04C229.547 474.04 230.176 474.189 230.731 474.488C231.286 474.787 231.712 475.219 232.011 475.784C232.278 475.251 232.694 474.829 233.259 474.52C233.824 474.2 234.432 474.04 235.083 474.04ZM244.86 483.144C244.028 483.144 243.276 482.957 242.604 482.584C241.932 482.2 241.404 481.667 241.02 480.984C240.636 480.291 240.444 479.491 240.444 478.584C240.444 477.688 240.641 476.893 241.036 476.2C241.431 475.507 241.969 474.973 242.652 474.6C243.335 474.227 244.097 474.04 244.94 474.04C245.783 474.04 246.545 474.227 247.228 474.6C247.911 474.973 248.449 475.507 248.844 476.2C249.239 476.893 249.436 477.688 249.436 478.584C249.436 479.48 249.233 480.275 248.828 480.968C248.423 481.661 247.868 482.2 247.164 482.584C246.471 482.957 245.703 483.144 244.86 483.144ZM244.86 481.56C245.329 481.56 245.767 481.448 246.172 481.224C246.588 481 246.924 480.664 247.18 480.216C247.436 479.768 247.564 479.224 247.564 478.584C247.564 477.944 247.441 477.405 247.196 476.968C246.951 476.52 246.625 476.184 246.22 475.96C245.815 475.736 245.377 475.624 244.908 475.624C244.439 475.624 244.001 475.736 243.596 475.96C243.201 476.184 242.887 476.52 242.652 476.968C242.417 477.405 242.3 477.944 242.3 478.584C242.3 479.533 242.54 480.269 243.02 480.792C243.511 481.304 244.124 481.56 244.86 481.56ZM261.911 474.04C262.604 474.04 263.223 474.184 263.767 474.472C264.322 474.76 264.754 475.187 265.063 475.752C265.383 476.317 265.543 477 265.543 477.8V483H263.735V478.072C263.735 477.283 263.538 476.68 263.143 476.264C262.748 475.837 262.21 475.624 261.527 475.624C260.844 475.624 260.3 475.837 259.895 476.264C259.5 476.68 259.303 477.283 259.303 478.072V483H257.495V478.072C257.495 477.283 257.298 476.68 256.903 476.264C256.508 475.837 255.97 475.624 255.287 475.624C254.604 475.624 254.06 475.837 253.655 476.264C253.26 476.68 253.063 477.283 253.063 478.072V483H251.239V474.184H253.063V475.192C253.362 474.829 253.74 474.547 254.199 474.344C254.658 474.141 255.148 474.04 255.671 474.04C256.375 474.04 257.004 474.189 257.559 474.488C258.114 474.787 258.54 475.219 258.839 475.784C259.106 475.251 259.522 474.829 260.087 474.52C260.652 474.2 261.26 474.04 261.911 474.04ZM275.944 478.376C275.944 478.707 275.923 479.005 275.88 479.272H269.144C269.197 479.976 269.459 480.541 269.928 480.968C270.397 481.395 270.973 481.608 271.656 481.608C272.637 481.608 273.331 481.197 273.736 480.376H275.704C275.437 481.187 274.952 481.853 274.248 482.376C273.555 482.888 272.691 483.144 271.656 483.144C270.813 483.144 270.056 482.957 269.384 482.584C268.723 482.2 268.2 481.667 267.816 480.984C267.443 480.291 267.256 479.491 267.256 478.584C267.256 477.677 267.437 476.883 267.8 476.2C268.173 475.507 268.691 474.973 269.352 474.6C270.024 474.227 270.792 474.04 271.656 474.04C272.488 474.04 273.229 474.221 273.88 474.584C274.531 474.947 275.037 475.459 275.4 476.12C275.763 476.771 275.944 477.523 275.944 478.376ZM274.04 477.8C274.029 477.128 273.789 476.589 273.32 476.184C272.851 475.779 272.269 475.576 271.576 475.576C270.947 475.576 270.408 475.779 269.96 476.184C269.512 476.579 269.245 477.117 269.16 477.8H274.04ZM282.187 474.04C282.88 474.04 283.499 474.184 284.043 474.472C284.598 474.76 285.03 475.187 285.339 475.752C285.648 476.317 285.803 477 285.803 477.8V483H283.995V478.072C283.995 477.283 283.798 476.68 283.403 476.264C283.008 475.837 282.47 475.624 281.787 475.624C281.104 475.624 280.56 475.837 280.155 476.264C279.76 476.68 279.563 477.283 279.563 478.072V483H277.739V474.184H279.563V475.192C279.862 474.829 280.24 474.547 280.699 474.344C281.168 474.141 281.664 474.04 282.187 474.04ZM290.258 475.672V480.552C290.258 480.883 290.332 481.123 290.482 481.272C290.642 481.411 290.908 481.48 291.282 481.48H292.402V483H290.962C290.14 483 289.511 482.808 289.074 482.424C288.636 482.04 288.418 481.416 288.418 480.552V475.672H287.378V474.184H288.418V471.992H290.258V474.184H292.402V475.672H290.258Z" fill="#9E9E9E"/>
</g>
<defs>
<filter id="filter0_d_1219_6550" x="-30" y="-10" width="456" height="597" filterUnits="userSpaceOnUse" color-interpolation-filters="sRGB">
<feFlood flood-opacity="0" result="BackgroundImageFix"/>
<feColorMatrix in="SourceAlpha" type="matrix" values="0 0 0 0 0 0 0 0 0 0 0 0 0 0 0 0 0 0 127 0" result="hardAlpha"/>
<feOffset dy="20"/>
<feGaussianBlur stdDeviation="15"/>
<feComposite in2="hardAlpha" operator="out"/>
<feColorMatrix type="matrix" values="0 0 0 0 0.570833 0 0 0 0 0.570833 0 0 0 0 0.570833 0 0 0 0.19 0"/>
<feBlend mode="normal" in2="BackgroundImageFix" result="effect1_dropShadow_1219_6550"/>
<feBlend mode="normal" in="SourceGraphic" in2="effect1_dropShadow_1219_6550" result="shape"/>
</filter>
<filter id="filter1_d_1219_6550" x="107" y="101.556" width="184.537" height="215.029" filterUnits="userSpaceOnUse" color-interpolation-filters="sRGB">
<feFlood flood-opacity="0" result="BackgroundImageFix"/>
<feColorMatrix in="SourceAlpha" type="matrix" values="0 0 0 0 0 0 0 0 0 0 0 0 0 0 0 0 0 0 127 0" result="hardAlpha"/>
<feOffset dy="20"/>
<feGaussianBlur stdDeviation="15"/>
<feComposite in2="hardAlpha" operator="out"/>
<feColorMatrix type="matrix" values="0 0 0 0 0.570833 0 0 0 0 0.570833 0 0 0 0 0.570833 0 0 0 0.19 0"/>
<feBlend mode="normal" in2="BackgroundImageFix" result="effect1_dropShadow_1219_6550"/>
<feBlend mode="normal" in="SourceGraphic" in2="effect1_dropShadow_1219_6550" result="shape"/>
</filter>
<filter id="filter2_d_1219_6550" x="264" y="85.4241" width="96.219" height="66.3889" filterUnits="userSpaceOnUse" color-interpolation-filters="sRGB">
<feFlood flood-opacity="0" result="BackgroundImageFix"/>
<feColorMatrix in="SourceAlpha" type="matrix" values="0 0 0 0 0 0 0 0 0 0 0 0 0 0 0 0 0 0 127 0" result="hardAlpha"/>
<feOffset dx="6" dy="4"/>
<feGaussianBlur stdDeviation="6.5"/>
<feComposite in2="hardAlpha" operator="out"/>
<feColorMatrix type="matrix" values="0 0 0 0 0.104618 0 0 0 0 0.465612 0 0 0 0 0.545833 0 0 0 0.09 0"/>
<feBlend mode="normal" in2="BackgroundImageFix" result="effect1_dropShadow_1219_6550"/>
<feBlend mode="normal" in="SourceGraphic" in2="effect1_dropShadow_1219_6550" result="shape"/>
</filter>
<filter id="filter3_b_1219_6550" x="171" y="149" width="125" height="124" filterUnits="userSpaceOnUse" color-interpolation-filters="sRGB">
<feFlood flood-opacity="0" result="BackgroundImageFix"/>
<feGaussianBlur in="BackgroundImage" stdDeviation="4"/>
<feComposite in2="SourceAlpha" operator="in" result="effect1_backgroundBlur_1219_6550"/>
<feBlend mode="normal" in="SourceGraphic" in2="effect1_backgroundBlur_1219_6550" result="shape"/>
</filter>
<linearGradient id="paint0_linear_1219_6550" x1="197.075" y1="37.9251" x2="199.533" y2="459.347" gradientUnits="userSpaceOnUse">
<stop stop-color="#F2F2F2"/>
<stop offset="1" stop-color="#EFEFEF"/>
</linearGradient>
<clipPath id="clip0_1219_6550">
<rect width="300" height="300" fill="white" transform="translate(48 48)"/>
</clipPath>
</defs>
</svg>
