<svg width="396" height="539" viewBox="0 0 396 539" fill="none" xmlns="http://www.w3.org/2000/svg">
<g filter="url(#filter0_d_1219_6551)">
<path fill-rule="evenodd" clip-rule="evenodd" d="M62.7749 261.615C63.8456 261.234 64.9724 260.727 65.8413 259.992C66.8733 259.12 67.293 257.997 67.5749 256.815C67.9367 255.296 68.0813 253.679 68.5201 252.157C68.6826 251.592 68.9952 251.379 69.1294 251.284C69.4684 251.045 69.8112 250.981 70.1336 251.005C70.5158 251.032 71.0407 251.177 71.386 251.818C71.4352 251.909 71.4992 252.049 71.5423 252.24C71.5736 252.381 71.5939 252.819 71.6272 253C71.7103 253.446 71.7798 253.891 71.845 254.339C72.0623 255.831 72.1872 257.097 72.8733 258.467C73.8044 260.327 74.7374 261.464 76.0026 261.968C77.226 262.456 78.6887 262.364 80.5577 261.982C80.7355 261.939 80.9115 261.902 81.0856 261.872C81.9096 261.728 82.6973 262.269 82.8592 263.09C83.021 263.91 82.4974 264.709 81.6807 264.89C81.5103 264.927 81.3423 264.963 81.1761 264.995C78.6506 265.621 75.7269 267.852 74.0278 269.806C73.5041 270.408 72.7373 272.093 71.9552 273.167C71.378 273.96 70.7293 274.482 70.1847 274.667C69.8198 274.791 69.5121 274.772 69.258 274.709C68.8887 274.618 68.5823 274.418 68.3472 274.1C68.2192 273.926 68.1004 273.693 68.0438 273.395C68.0167 273.251 68.0137 272.887 68.0143 272.722C67.8549 272.174 67.6598 271.639 67.5177 271.085C67.1786 269.765 66.5133 268.93 65.7232 267.826C64.9841 266.792 64.1903 266.143 63.0266 265.625C62.8752 265.588 61.6537 265.289 61.2223 265.117C60.5921 264.866 60.2918 264.444 60.1829 264.217C59.9976 263.832 59.9786 263.495 60.0155 263.215C60.0703 262.8 60.2561 262.446 60.586 262.16C60.7903 261.982 61.0955 261.809 61.5041 261.725C61.8198 261.659 62.6573 261.621 62.7749 261.615ZM69.941 259.464C69.9976 259.59 70.058 259.717 70.122 259.845C71.4856 262.568 73.0106 264.089 74.8641 264.827L74.9263 264.851C73.6863 265.771 72.5638 266.8 71.7059 267.787C71.3527 268.193 70.885 269.037 70.3798 269.902C69.9207 268.41 69.17 267.355 68.226 266.035C67.5047 265.027 66.749 264.269 65.8204 263.651C66.541 263.282 67.2284 262.848 67.8272 262.343C68.8241 261.5 69.4832 260.524 69.941 259.464Z" fill="#417BA4"/>
<circle cx="90" cy="80" r="6" fill="#417BA4"/>
<circle cx="329" cy="205" r="6" fill="#417BA4"/>
<path d="M189 302C251.96 302 303 250.96 303 188C303 125.04 251.96 74 189 74C126.04 74 75 125.04 75 188C75 250.96 126.04 302 189 302Z" fill="url(#paint0_linear_1219_6551)"/>
<path fill-rule="evenodd" clip-rule="evenodd" d="M188.5 119C200.926 119 211 108.926 211 96.5C211 84.0736 200.926 74 188.5 74C176.074 74 166 84.0736 166 96.5C166 108.926 176.074 119 188.5 119ZM188 109C194.627 109 200 103.627 200 97C200 90.3726 194.627 85 188 85C181.373 85 176 90.3726 176 97C176 103.627 181.373 109 188 109Z" fill="#011625"/>
<path d="M188.05 277.1C212.378 277.1 232.1 257.378 232.1 233.05C232.1 208.722 212.378 189 188.05 189C163.722 189 144 208.722 144 233.05C144 257.378 163.722 277.1 188.05 277.1Z" fill="#FF4040"/>
<path d="M257.767 200.299V166.504C257.767 148.07 250.444 130.392 237.41 117.357C224.375 104.323 206.697 97 188.263 97C169.83 97 152.151 104.323 139.117 117.357C126.082 130.392 118.759 148.07 118.759 166.504V200.299C118.76 208.063 116.564 215.669 112.424 222.237C108.284 228.806 102.37 234.069 95.3655 237.418C93.7555 238.184 92.3965 239.393 91.4466 240.902C90.4967 242.411 89.9951 244.159 90 245.942V246.125C89.9988 246.769 90.1247 247.407 90.3703 248.003C90.6159 248.598 90.9765 249.139 91.4315 249.595C91.8865 250.051 92.4269 250.412 93.0218 250.659C93.6168 250.906 94.2545 251.033 94.8985 251.033H281.619C282.263 251.033 282.9 250.906 283.495 250.659C284.09 250.412 284.631 250.051 285.086 249.595C285.541 249.139 285.901 248.598 286.147 248.003C286.393 247.407 286.518 246.769 286.517 246.125V245.942C286.518 244.165 286.015 242.423 285.067 240.919C284.119 239.416 282.765 238.211 281.161 237.445C274.152 234.094 268.235 228.827 264.095 222.253C259.955 215.68 257.761 208.068 257.767 200.299Z" fill="#E1DCEB"/>
<path fill-rule="evenodd" clip-rule="evenodd" d="M287 251H90V245H287V251Z" fill="#011625"/>
<path d="M244 161C259.464 161 272 148.464 272 133C272 117.536 259.464 105 244 105C228.536 105 216 117.536 216 133C216 148.464 228.536 161 244 161Z" fill="white"/>
<path d="M237 132.989C237 130.506 237.568 128.553 238.703 127.132C239.854 125.711 241.62 125 244 125C246.364 125 248.122 125.718 249.273 127.153C250.424 128.575 251 130.52 251 132.989C251 135.473 250.424 137.432 249.273 138.868C248.122 140.289 246.364 141 244 141C241.62 141 239.854 140.289 238.703 138.868C237.568 137.432 237 135.473 237 132.989ZM245.89 132.989C245.89 131.841 245.766 130.979 245.517 130.405C245.268 129.817 244.762 129.522 244 129.522C243.222 129.522 242.709 129.817 242.46 130.405C242.211 130.979 242.087 131.841 242.087 132.989C242.087 134.152 242.211 135.028 242.46 135.616C242.709 136.191 243.222 136.478 244 136.478C244.762 136.478 245.268 136.191 245.517 135.616C245.766 135.028 245.89 134.152 245.89 132.989Z" fill="#011625"/>
<path fill-rule="evenodd" clip-rule="evenodd" d="M134.108 266.302C129.318 270.634 124.541 274.879 119.878 279.349C118.872 280.307 118.834 281.886 119.786 282.882C120.741 283.887 122.33 283.918 123.327 282.963C127.966 278.521 132.702 274.312 137.461 270.01C138.486 269.078 138.565 267.495 137.648 266.478C136.718 265.454 135.133 265.369 134.108 266.302Z" fill="#011625"/>
<path fill-rule="evenodd" clip-rule="evenodd" d="M242.324 266.304C247.088 270.637 251.838 274.883 256.473 279.353C257.474 280.311 257.503 281.89 256.547 282.883C255.588 283.886 254.001 283.916 253.01 282.961C248.398 278.519 243.689 274.308 238.957 270.006C237.937 269.073 237.866 267.492 238.787 266.476C239.721 265.454 241.305 265.371 242.324 266.304Z" fill="#011625"/>
<path fill-rule="evenodd" clip-rule="evenodd" d="M185.152 294.296C185.076 300.741 184.945 307.117 185.057 313.56C185.076 314.947 186.208 316.043 187.584 316.017C188.969 315.995 190.07 314.851 190.046 313.474C189.94 307.066 190.069 300.744 190.146 294.343C190.158 292.96 189.052 291.832 187.684 291.817C186.303 291.807 185.165 292.913 185.152 294.296Z" fill="#011625"/>
<path d="M93.3061 423H89.2021L82.3381 412.608V423H78.2341V406.152H82.3381L89.2021 416.592V406.152H93.3061V423ZM102.377 423.192C101.065 423.192 99.881 422.912 98.825 422.352C97.785 421.792 96.961 420.992 96.353 419.952C95.761 418.912 95.465 417.696 95.465 416.304C95.465 414.928 95.769 413.72 96.377 412.68C96.985 411.624 97.817 410.816 98.873 410.256C99.929 409.696 101.113 409.416 102.425 409.416C103.737 409.416 104.921 409.696 105.977 410.256C107.033 410.816 107.865 411.624 108.473 412.68C109.081 413.72 109.385 414.928 109.385 416.304C109.385 417.68 109.073 418.896 108.449 419.952C107.841 420.992 107.001 421.792 105.929 422.352C104.873 422.912 103.689 423.192 102.377 423.192ZM102.377 419.64C103.161 419.64 103.825 419.352 104.369 418.776C104.929 418.2 105.209 417.376 105.209 416.304C105.209 415.232 104.937 414.408 104.393 413.832C103.865 413.256 103.209 412.968 102.425 412.968C101.625 412.968 100.961 413.256 100.433 413.832C99.905 414.392 99.641 415.216 99.641 416.304C99.641 417.376 99.897 418.2 100.409 418.776C100.937 419.352 101.593 419.64 102.377 419.64ZM131.72 423H127.616L120.752 412.608V423H116.648V406.152H120.752L127.616 416.592V406.152H131.72V423ZM140.791 423.192C139.479 423.192 138.295 422.912 137.239 422.352C136.199 421.792 135.375 420.992 134.767 419.952C134.175 418.912 133.879 417.696 133.879 416.304C133.879 414.928 134.183 413.72 134.791 412.68C135.399 411.624 136.231 410.816 137.287 410.256C138.343 409.696 139.527 409.416 140.839 409.416C142.151 409.416 143.335 409.696 144.391 410.256C145.447 410.816 146.279 411.624 146.887 412.68C147.495 413.72 147.799 414.928 147.799 416.304C147.799 417.68 147.487 418.896 146.863 419.952C146.255 420.992 145.415 421.792 144.343 422.352C143.287 422.912 142.103 423.192 140.791 423.192ZM140.791 419.64C141.575 419.64 142.239 419.352 142.783 418.776C143.343 418.2 143.623 417.376 143.623 416.304C143.623 415.232 143.351 414.408 142.807 413.832C142.279 413.256 141.623 412.968 140.839 412.968C140.039 412.968 139.375 413.256 138.847 413.832C138.319 414.392 138.055 415.216 138.055 416.304C138.055 417.376 138.311 418.2 138.823 418.776C139.351 419.352 140.007 419.64 140.791 419.64ZM157.44 419.52V423H155.352C153.864 423 152.704 422.64 151.872 421.92C151.04 421.184 150.624 419.992 150.624 418.344V413.016H148.992V409.608H150.624V406.344H154.728V409.608H157.416V413.016H154.728V418.392C154.728 418.792 154.824 419.08 155.016 419.256C155.208 419.432 155.528 419.52 155.976 419.52H157.44ZM161.79 408.216C161.07 408.216 160.478 408.008 160.014 407.592C159.566 407.16 159.342 406.632 159.342 406.008C159.342 405.368 159.566 404.84 160.014 404.424C160.478 403.992 161.07 403.776 161.79 403.776C162.494 403.776 163.07 403.992 163.518 404.424C163.982 404.84 164.214 405.368 164.214 406.008C164.214 406.632 163.982 407.16 163.518 407.592C163.07 408.008 162.494 408.216 161.79 408.216ZM163.83 409.608V423H159.726V409.608H163.83ZM173.524 413.016H171.316V423H167.212V413.016H165.724V409.608H167.212V409.224C167.212 407.576 167.684 406.328 168.628 405.48C169.572 404.616 170.956 404.184 172.78 404.184C173.084 404.184 173.308 404.192 173.452 404.208V407.688C172.668 407.64 172.116 407.752 171.796 408.024C171.476 408.296 171.316 408.784 171.316 409.488V409.608H173.524V413.016ZM177.517 408.216C176.797 408.216 176.205 408.008 175.741 407.592C175.293 407.16 175.069 406.632 175.069 406.008C175.069 405.368 175.293 404.84 175.741 404.424C176.205 403.992 176.797 403.776 177.517 403.776C178.221 403.776 178.797 403.992 179.245 404.424C179.709 404.84 179.941 405.368 179.941 406.008C179.941 406.632 179.709 407.16 179.245 407.592C178.797 408.008 178.221 408.216 177.517 408.216ZM179.557 409.608V423H175.453V409.608H179.557ZM181.715 416.304C181.715 414.912 181.995 413.696 182.555 412.656C183.131 411.616 183.923 410.816 184.931 410.256C185.955 409.696 187.123 409.416 188.435 409.416C190.115 409.416 191.515 409.856 192.635 410.736C193.771 411.616 194.515 412.856 194.867 414.456H190.499C190.131 413.432 189.419 412.92 188.363 412.92C187.611 412.92 187.011 413.216 186.563 413.808C186.115 414.384 185.891 415.216 185.891 416.304C185.891 417.392 186.115 418.232 186.563 418.824C187.011 419.4 187.611 419.688 188.363 419.688C189.419 419.688 190.131 419.176 190.499 418.152H194.867C194.515 419.72 193.771 420.952 192.635 421.848C191.499 422.744 190.099 423.192 188.435 423.192C187.123 423.192 185.955 422.912 184.931 422.352C183.923 421.792 183.131 420.992 182.555 419.952C181.995 418.912 181.715 417.696 181.715 416.304ZM196.246 416.28C196.246 414.904 196.502 413.696 197.014 412.656C197.542 411.616 198.254 410.816 199.15 410.256C200.046 409.696 201.046 409.416 202.15 409.416C203.094 409.416 203.918 409.608 204.622 409.992C205.342 410.376 205.894 410.88 206.278 411.504V409.608H210.382V423H206.278V421.104C205.878 421.728 205.318 422.232 204.598 422.616C203.894 423 203.07 423.192 202.126 423.192C201.038 423.192 200.046 422.912 199.15 422.352C198.254 421.776 197.542 420.968 197.014 419.928C196.502 418.872 196.246 417.656 196.246 416.28ZM206.278 416.304C206.278 415.28 205.99 414.472 205.414 413.88C204.854 413.288 204.166 412.992 203.35 412.992C202.534 412.992 201.838 413.288 201.262 413.88C200.702 414.456 200.422 415.256 200.422 416.28C200.422 417.304 200.702 418.12 201.262 418.728C201.838 419.32 202.534 419.616 203.35 419.616C204.166 419.616 204.854 419.32 205.414 418.728C205.99 418.136 206.278 417.328 206.278 416.304ZM220.815 419.52V423H218.727C217.239 423 216.079 422.64 215.247 421.92C214.415 421.184 213.999 419.992 213.999 418.344V413.016H212.367V409.608H213.999V406.344H218.103V409.608H220.791V413.016H218.103V418.392C218.103 418.792 218.199 419.08 218.391 419.256C218.583 419.432 218.903 419.52 219.351 419.52H220.815ZM225.165 408.216C224.445 408.216 223.853 408.008 223.389 407.592C222.941 407.16 222.717 406.632 222.717 406.008C222.717 405.368 222.941 404.84 223.389 404.424C223.853 403.992 224.445 403.776 225.165 403.776C225.869 403.776 226.445 403.992 226.893 404.424C227.357 404.84 227.589 405.368 227.589 406.008C227.589 406.632 227.357 407.16 226.893 407.592C226.445 408.008 225.869 408.216 225.165 408.216ZM227.205 409.608V423H223.101V409.608H227.205ZM236.275 423.192C234.963 423.192 233.779 422.912 232.723 422.352C231.683 421.792 230.859 420.992 230.251 419.952C229.659 418.912 229.363 417.696 229.363 416.304C229.363 414.928 229.667 413.72 230.275 412.68C230.883 411.624 231.715 410.816 232.771 410.256C233.827 409.696 235.011 409.416 236.323 409.416C237.635 409.416 238.819 409.696 239.875 410.256C240.931 410.816 241.763 411.624 242.371 412.68C242.979 413.72 243.283 414.928 243.283 416.304C243.283 417.68 242.971 418.896 242.347 419.952C241.739 420.992 240.899 421.792 239.827 422.352C238.771 422.912 237.587 423.192 236.275 423.192ZM236.275 419.64C237.059 419.64 237.723 419.352 238.267 418.776C238.827 418.2 239.107 417.376 239.107 416.304C239.107 415.232 238.835 414.408 238.291 413.832C237.763 413.256 237.107 412.968 236.323 412.968C235.523 412.968 234.859 413.256 234.331 413.832C233.803 414.392 233.539 415.216 233.539 416.304C233.539 417.376 233.795 418.2 234.307 418.776C234.835 419.352 235.491 419.64 236.275 419.64ZM253.621 409.464C255.189 409.464 256.437 409.976 257.365 411C258.309 412.008 258.781 413.4 258.781 415.176V423H254.701V415.728C254.701 414.832 254.469 414.136 254.005 413.64C253.541 413.144 252.917 412.896 252.133 412.896C251.349 412.896 250.725 413.144 250.261 413.64C249.797 414.136 249.565 414.832 249.565 415.728V423H245.461V409.608H249.565V411.384C249.981 410.792 250.541 410.328 251.245 409.992C251.949 409.64 252.741 409.464 253.621 409.464ZM267.081 423.192C265.913 423.192 264.873 422.992 263.961 422.592C263.049 422.192 262.329 421.648 261.801 420.96C261.273 420.256 260.977 419.472 260.913 418.608H264.969C265.017 419.072 265.233 419.448 265.617 419.736C266.001 420.024 266.473 420.168 267.033 420.168C267.545 420.168 267.937 420.072 268.209 419.88C268.497 419.672 268.641 419.408 268.641 419.088C268.641 418.704 268.441 418.424 268.041 418.248C267.641 418.056 266.993 417.848 266.097 417.624C265.137 417.4 264.337 417.168 263.697 416.928C263.057 416.672 262.505 416.28 262.041 415.752C261.577 415.208 261.345 414.48 261.345 413.568C261.345 412.8 261.553 412.104 261.969 411.48C262.401 410.84 263.025 410.336 263.841 409.968C264.673 409.6 265.657 409.416 266.793 409.416C268.473 409.416 269.793 409.832 270.753 410.664C271.729 411.496 272.289 412.6 272.433 413.976H268.641C268.577 413.512 268.369 413.144 268.017 412.872C267.681 412.6 267.233 412.464 266.673 412.464C266.193 412.464 265.825 412.56 265.569 412.752C265.313 412.928 265.185 413.176 265.185 413.496C265.185 413.88 265.385 414.168 265.785 414.36C266.201 414.552 266.841 414.744 267.705 414.936C268.697 415.192 269.505 415.448 270.129 415.704C270.753 415.944 271.297 416.344 271.761 416.904C272.241 417.448 272.489 418.184 272.505 419.112C272.505 419.896 272.281 420.6 271.833 421.224C271.401 421.832 270.769 422.312 269.937 422.664C269.121 423.016 268.169 423.192 267.081 423.192ZM294.549 406.152L288.717 417.432V423H284.613V417.432L278.781 406.152H283.437L286.701 413.208L289.941 406.152H294.549ZM308.827 416.088C308.827 416.472 308.803 416.872 308.755 417.288H299.467C299.531 418.12 299.795 418.76 300.259 419.208C300.739 419.64 301.323 419.856 302.011 419.856C303.035 419.856 303.747 419.424 304.147 418.56H308.515C308.291 419.44 307.883 420.232 307.291 420.936C306.715 421.64 305.987 422.192 305.107 422.592C304.227 422.992 303.243 423.192 302.155 423.192C300.843 423.192 299.675 422.912 298.651 422.352C297.627 421.792 296.827 420.992 296.251 419.952C295.675 418.912 295.387 417.696 295.387 416.304C295.387 414.912 295.667 413.696 296.227 412.656C296.803 411.616 297.603 410.816 298.627 410.256C299.651 409.696 300.827 409.416 302.155 409.416C303.451 409.416 304.603 409.688 305.611 410.232C306.619 410.776 307.403 411.552 307.963 412.56C308.539 413.568 308.827 414.744 308.827 416.088ZM304.627 415.008C304.627 414.304 304.387 413.744 303.907 413.328C303.427 412.912 302.827 412.704 302.107 412.704C301.419 412.704 300.835 412.904 300.355 413.304C299.891 413.704 299.603 414.272 299.491 415.008H304.627ZM318.456 419.52V423H316.368C314.88 423 313.72 422.64 312.888 421.92C312.056 421.184 311.64 419.992 311.64 418.344V413.016H310.008V409.608H311.64V406.344H315.744V409.608H318.432V413.016H315.744V418.392C315.744 418.792 315.84 419.08 316.032 419.256C316.224 419.432 316.544 419.52 316.992 419.52H318.456Z" fill="#303030"/>
<path d="M63.8228 447.88L60.1428 454.968V459H58.3188V454.968L54.6228 447.88H56.6548L59.2308 453.336L61.8068 447.88H63.8228ZM69.0943 459.144C68.2623 459.144 67.5103 458.957 66.8383 458.584C66.1663 458.2 65.6383 457.667 65.2543 456.984C64.8703 456.291 64.6783 455.491 64.6783 454.584C64.6783 453.688 64.8756 452.893 65.2703 452.2C65.665 451.507 66.2036 450.973 66.8863 450.6C67.569 450.227 68.3316 450.04 69.1743 450.04C70.017 450.04 70.7796 450.227 71.4623 450.6C72.145 450.973 72.6836 451.507 73.0783 452.2C73.473 452.893 73.6703 453.688 73.6703 454.584C73.6703 455.48 73.4676 456.275 73.0623 456.968C72.657 457.661 72.1023 458.2 71.3983 458.584C70.705 458.957 69.937 459.144 69.0943 459.144ZM69.0943 457.56C69.5636 457.56 70.001 457.448 70.4063 457.224C70.8223 457 71.1583 456.664 71.4143 456.216C71.6703 455.768 71.7983 455.224 71.7983 454.584C71.7983 453.944 71.6756 453.405 71.4303 452.968C71.185 452.52 70.8596 452.184 70.4543 451.96C70.049 451.736 69.6116 451.624 69.1423 451.624C68.673 451.624 68.2356 451.736 67.8303 451.96C67.4356 452.184 67.121 452.52 66.8863 452.968C66.6516 453.405 66.5343 453.944 66.5343 454.584C66.5343 455.533 66.7743 456.269 67.2543 456.792C67.745 457.304 68.3583 457.56 69.0943 457.56ZM83.4574 450.184V459H81.6334V457.96C81.3454 458.323 80.9668 458.611 80.4974 458.824C80.0388 459.027 79.5481 459.128 79.0254 459.128C78.3321 459.128 77.7081 458.984 77.1534 458.696C76.6094 458.408 76.1774 457.981 75.8574 457.416C75.5481 456.851 75.3934 456.168 75.3934 455.368V450.184H77.2014V455.096C77.2014 455.885 77.3988 456.493 77.7934 456.92C78.1881 457.336 78.7268 457.544 79.4094 457.544C80.0921 457.544 80.6308 457.336 81.0254 456.92C81.4308 456.493 81.6334 455.885 81.6334 455.096V450.184H83.4574ZM94.5803 450.04C95.2523 450.04 95.8496 450.184 96.3723 450.472C96.9056 450.76 97.3216 451.187 97.6203 451.752C97.9296 452.317 98.0843 453 98.0843 453.8V459H96.2763V454.072C96.2763 453.283 96.079 452.68 95.6843 452.264C95.2896 451.837 94.751 451.624 94.0683 451.624C93.3856 451.624 92.8416 451.837 92.4363 452.264C92.0416 452.68 91.8443 453.283 91.8443 454.072V459H90.0203V447.16H91.8443V451.208C92.1536 450.835 92.543 450.547 93.0123 450.344C93.4923 450.141 94.015 450.04 94.5803 450.04ZM99.8029 454.552C99.8029 453.667 99.9843 452.883 100.347 452.2C100.72 451.517 101.222 450.989 101.851 450.616C102.491 450.232 103.195 450.04 103.963 450.04C104.656 450.04 105.259 450.179 105.771 450.456C106.294 450.723 106.71 451.059 107.019 451.464V450.184H108.859V459H107.019V457.688C106.71 458.104 106.288 458.451 105.755 458.728C105.222 459.005 104.614 459.144 103.931 459.144C103.174 459.144 102.48 458.952 101.851 458.568C101.222 458.173 100.72 457.629 100.347 456.936C99.9843 456.232 99.8029 455.437 99.8029 454.552ZM107.019 454.584C107.019 453.976 106.891 453.448 106.635 453C106.39 452.552 106.064 452.211 105.659 451.976C105.254 451.741 104.816 451.624 104.347 451.624C103.878 451.624 103.44 451.741 103.035 451.976C102.63 452.2 102.299 452.536 102.043 452.984C101.798 453.421 101.675 453.944 101.675 454.552C101.675 455.16 101.798 455.693 102.043 456.152C102.299 456.611 102.63 456.963 103.035 457.208C103.451 457.443 103.888 457.56 104.347 457.56C104.816 457.56 105.254 457.443 105.659 457.208C106.064 456.973 106.39 456.632 106.635 456.184C106.891 455.725 107.019 455.192 107.019 454.584ZM114.663 457.368L117.159 450.184H119.095L115.735 459H113.559L110.215 450.184H112.167L114.663 457.368ZM128.553 454.376C128.553 454.707 128.532 455.005 128.489 455.272H121.753C121.807 455.976 122.068 456.541 122.537 456.968C123.007 457.395 123.583 457.608 124.265 457.608C125.247 457.608 125.94 457.197 126.345 456.376H128.313C128.047 457.187 127.561 457.853 126.857 458.376C126.164 458.888 125.3 459.144 124.265 459.144C123.423 459.144 122.665 458.957 121.993 458.584C121.332 458.2 120.809 457.667 120.425 456.984C120.052 456.291 119.865 455.491 119.865 454.584C119.865 453.677 120.047 452.883 120.409 452.2C120.783 451.507 121.3 450.973 121.961 450.6C122.633 450.227 123.401 450.04 124.265 450.04C125.097 450.04 125.839 450.221 126.489 450.584C127.14 450.947 127.647 451.459 128.009 452.12C128.372 452.771 128.553 453.523 128.553 454.376ZM126.649 453.8C126.639 453.128 126.399 452.589 125.929 452.184C125.46 451.779 124.879 451.576 124.185 451.576C123.556 451.576 123.017 451.779 122.569 452.184C122.121 452.579 121.855 453.117 121.769 453.8H126.649ZM138.953 450.04C139.646 450.04 140.265 450.184 140.809 450.472C141.363 450.76 141.795 451.187 142.105 451.752C142.414 452.317 142.569 453 142.569 453.8V459H140.761V454.072C140.761 453.283 140.563 452.68 140.169 452.264C139.774 451.837 139.235 451.624 138.553 451.624C137.87 451.624 137.326 451.837 136.921 452.264C136.526 452.68 136.329 453.283 136.329 454.072V459H134.505V450.184H136.329V451.192C136.627 450.829 137.006 450.547 137.465 450.344C137.934 450.141 138.43 450.04 138.953 450.04ZM148.719 459.144C147.887 459.144 147.135 458.957 146.463 458.584C145.791 458.2 145.263 457.667 144.879 456.984C144.495 456.291 144.303 455.491 144.303 454.584C144.303 453.688 144.501 452.893 144.895 452.2C145.29 451.507 145.829 450.973 146.511 450.6C147.194 450.227 147.957 450.04 148.799 450.04C149.642 450.04 150.405 450.227 151.087 450.6C151.77 450.973 152.309 451.507 152.703 452.2C153.098 452.893 153.295 453.688 153.295 454.584C153.295 455.48 153.093 456.275 152.687 456.968C152.282 457.661 151.727 458.2 151.023 458.584C150.33 458.957 149.562 459.144 148.719 459.144ZM148.719 457.56C149.189 457.56 149.626 457.448 150.031 457.224C150.447 457 150.783 456.664 151.039 456.216C151.295 455.768 151.423 455.224 151.423 454.584C151.423 453.944 151.301 453.405 151.055 452.968C150.81 452.52 150.485 452.184 150.079 451.96C149.674 451.736 149.237 451.624 148.767 451.624C148.298 451.624 147.861 451.736 147.455 451.96C147.061 452.184 146.746 452.52 146.511 452.968C146.277 453.405 146.159 453.944 146.159 454.584C146.159 455.533 146.399 456.269 146.879 456.792C147.37 457.304 147.983 457.56 148.719 457.56ZM163.703 450.04C164.396 450.04 165.015 450.184 165.559 450.472C166.113 450.76 166.545 451.187 166.855 451.752C167.164 452.317 167.319 453 167.319 453.8V459H165.511V454.072C165.511 453.283 165.313 452.68 164.919 452.264C164.524 451.837 163.985 451.624 163.303 451.624C162.62 451.624 162.076 451.837 161.671 452.264C161.276 452.68 161.079 453.283 161.079 454.072V459H159.255V450.184H161.079V451.192C161.377 450.829 161.756 450.547 162.215 450.344C162.684 450.141 163.18 450.04 163.703 450.04ZM173.469 459.144C172.637 459.144 171.885 458.957 171.213 458.584C170.541 458.2 170.013 457.667 169.629 456.984C169.245 456.291 169.053 455.491 169.053 454.584C169.053 453.688 169.251 452.893 169.645 452.2C170.04 451.507 170.579 450.973 171.261 450.6C171.944 450.227 172.707 450.04 173.549 450.04C174.392 450.04 175.155 450.227 175.837 450.6C176.52 450.973 177.059 451.507 177.453 452.2C177.848 452.893 178.045 453.688 178.045 454.584C178.045 455.48 177.843 456.275 177.437 456.968C177.032 457.661 176.477 458.2 175.773 458.584C175.08 458.957 174.312 459.144 173.469 459.144ZM173.469 457.56C173.939 457.56 174.376 457.448 174.781 457.224C175.197 457 175.533 456.664 175.789 456.216C176.045 455.768 176.173 455.224 176.173 454.584C176.173 453.944 176.051 453.405 175.805 452.968C175.56 452.52 175.235 452.184 174.829 451.96C174.424 451.736 173.987 451.624 173.517 451.624C173.048 451.624 172.611 451.736 172.205 451.96C171.811 452.184 171.496 452.52 171.261 452.968C171.027 453.405 170.909 453.944 170.909 454.584C170.909 455.533 171.149 456.269 171.629 456.792C172.12 457.304 172.733 457.56 173.469 457.56ZM181.976 451.672V456.552C181.976 456.883 182.051 457.123 182.2 457.272C182.36 457.411 182.627 457.48 183 457.48H184.12V459H182.68C181.859 459 181.23 458.808 180.792 458.424C180.355 458.04 180.136 457.416 180.136 456.552V451.672H179.096V450.184H180.136V447.992H181.976V450.184H184.12V451.672H181.976ZM186.73 449.016C186.399 449.016 186.122 448.904 185.898 448.68C185.674 448.456 185.562 448.179 185.562 447.848C185.562 447.517 185.674 447.24 185.898 447.016C186.122 446.792 186.399 446.68 186.73 446.68C187.05 446.68 187.322 446.792 187.546 447.016C187.77 447.24 187.882 447.517 187.882 447.848C187.882 448.179 187.77 448.456 187.546 448.68C187.322 448.904 187.05 449.016 186.73 449.016ZM187.626 450.184V459H185.802V450.184H187.626ZM193.716 451.672H192.084V459H190.244V451.672H189.204V450.184H190.244V449.56C190.244 448.547 190.511 447.811 191.044 447.352C191.588 446.883 192.436 446.648 193.588 446.648V448.168C193.034 448.168 192.644 448.275 192.42 448.488C192.196 448.691 192.084 449.048 192.084 449.56V450.184H193.716V451.672ZM196.261 449.016C195.93 449.016 195.653 448.904 195.429 448.68C195.205 448.456 195.093 448.179 195.093 447.848C195.093 447.517 195.205 447.24 195.429 447.016C195.653 446.792 195.93 446.68 196.261 446.68C196.581 446.68 196.853 446.792 197.077 447.016C197.301 447.24 197.413 447.517 197.413 447.848C197.413 448.179 197.301 448.456 197.077 448.68C196.853 448.904 196.581 449.016 196.261 449.016ZM197.157 450.184V459H195.333V450.184H197.157ZM198.944 454.584C198.944 453.677 199.125 452.883 199.488 452.2C199.861 451.507 200.373 450.973 201.024 450.6C201.674 450.227 202.421 450.04 203.264 450.04C204.33 450.04 205.21 450.296 205.904 450.808C206.608 451.309 207.082 452.029 207.328 452.968H205.36C205.2 452.531 204.944 452.189 204.592 451.944C204.24 451.699 203.797 451.576 203.264 451.576C202.517 451.576 201.92 451.843 201.472 452.376C201.034 452.899 200.816 453.635 200.816 454.584C200.816 455.533 201.034 456.275 201.472 456.808C201.92 457.341 202.517 457.608 203.264 457.608C204.32 457.608 205.018 457.144 205.36 456.216H207.328C207.072 457.112 206.592 457.827 205.888 458.36C205.184 458.883 204.309 459.144 203.264 459.144C202.421 459.144 201.674 458.957 201.024 458.584C200.373 458.2 199.861 457.667 199.488 456.984C199.125 456.291 198.944 455.491 198.944 454.584ZM208.537 454.552C208.537 453.667 208.719 452.883 209.081 452.2C209.455 451.517 209.956 450.989 210.585 450.616C211.225 450.232 211.929 450.04 212.697 450.04C213.391 450.04 213.993 450.179 214.505 450.456C215.028 450.723 215.444 451.059 215.753 451.464V450.184H217.593V459H215.753V457.688C215.444 458.104 215.023 458.451 214.489 458.728C213.956 459.005 213.348 459.144 212.665 459.144C211.908 459.144 211.215 458.952 210.585 458.568C209.956 458.173 209.455 457.629 209.081 456.936C208.719 456.232 208.537 455.437 208.537 454.552ZM215.753 454.584C215.753 453.976 215.625 453.448 215.369 453C215.124 452.552 214.799 452.211 214.393 451.976C213.988 451.741 213.551 451.624 213.081 451.624C212.612 451.624 212.175 451.741 211.769 451.976C211.364 452.2 211.033 452.536 210.777 452.984C210.532 453.421 210.409 453.944 210.409 454.552C210.409 455.16 210.532 455.693 210.777 456.152C211.033 456.611 211.364 456.963 211.769 457.208C212.185 457.443 212.623 457.56 213.081 457.56C213.551 457.56 213.988 457.443 214.393 457.208C214.799 456.973 215.124 456.632 215.369 456.184C215.625 455.725 215.753 455.192 215.753 454.584ZM222.117 451.672V456.552C222.117 456.883 222.192 457.123 222.341 457.272C222.501 457.411 222.768 457.48 223.141 457.48H224.261V459H222.821C222 459 221.37 458.808 220.933 458.424C220.496 458.04 220.277 457.416 220.277 456.552V451.672H219.237V450.184H220.277V447.992H222.117V450.184H224.261V451.672H222.117ZM226.87 449.016C226.54 449.016 226.262 448.904 226.038 448.68C225.814 448.456 225.702 448.179 225.702 447.848C225.702 447.517 225.814 447.24 226.038 447.016C226.262 446.792 226.54 446.68 226.87 446.68C227.19 446.68 227.462 446.792 227.686 447.016C227.91 447.24 228.022 447.517 228.022 447.848C228.022 448.179 227.91 448.456 227.686 448.68C227.462 448.904 227.19 449.016 226.87 449.016ZM227.766 450.184V459H225.942V450.184H227.766ZM233.985 459.144C233.153 459.144 232.401 458.957 231.729 458.584C231.057 458.2 230.529 457.667 230.145 456.984C229.761 456.291 229.569 455.491 229.569 454.584C229.569 453.688 229.766 452.893 230.161 452.2C230.556 451.507 231.094 450.973 231.777 450.6C232.46 450.227 233.222 450.04 234.065 450.04C234.908 450.04 235.67 450.227 236.353 450.6C237.036 450.973 237.574 451.507 237.969 452.2C238.364 452.893 238.561 453.688 238.561 454.584C238.561 455.48 238.358 456.275 237.953 456.968C237.548 457.661 236.993 458.2 236.289 458.584C235.596 458.957 234.828 459.144 233.985 459.144ZM233.985 457.56C234.454 457.56 234.892 457.448 235.297 457.224C235.713 457 236.049 456.664 236.305 456.216C236.561 455.768 236.689 455.224 236.689 454.584C236.689 453.944 236.566 453.405 236.321 452.968C236.076 452.52 235.75 452.184 235.345 451.96C234.94 451.736 234.502 451.624 234.033 451.624C233.564 451.624 233.126 451.736 232.721 451.96C232.326 452.184 232.012 452.52 231.777 452.968C231.542 453.405 231.425 453.944 231.425 454.584C231.425 455.533 231.665 456.269 232.145 456.792C232.636 457.304 233.249 457.56 233.985 457.56ZM244.812 450.04C245.505 450.04 246.124 450.184 246.668 450.472C247.223 450.76 247.655 451.187 247.964 451.752C248.273 452.317 248.428 453 248.428 453.8V459H246.62V454.072C246.62 453.283 246.423 452.68 246.028 452.264C245.633 451.837 245.095 451.624 244.412 451.624C243.729 451.624 243.185 451.837 242.78 452.264C242.385 452.68 242.188 453.283 242.188 454.072V459H240.364V450.184H242.188V451.192C242.487 450.829 242.865 450.547 243.324 450.344C243.793 450.141 244.289 450.04 244.812 450.04ZM253.955 459.144C253.261 459.144 252.637 459.021 252.083 458.776C251.539 458.52 251.107 458.179 250.787 457.752C250.467 457.315 250.296 456.829 250.275 456.296H252.163C252.195 456.669 252.371 456.984 252.691 457.24C253.021 457.485 253.432 457.608 253.923 457.608C254.435 457.608 254.829 457.512 255.107 457.32C255.395 457.117 255.539 456.861 255.539 456.552C255.539 456.221 255.379 455.976 255.059 455.816C254.749 455.656 254.253 455.48 253.571 455.288C252.909 455.107 252.371 454.931 251.955 454.76C251.539 454.589 251.176 454.328 250.867 453.976C250.568 453.624 250.419 453.16 250.419 452.584C250.419 452.115 250.557 451.688 250.835 451.304C251.112 450.909 251.507 450.6 252.019 450.376C252.541 450.152 253.139 450.04 253.811 450.04C254.813 450.04 255.619 450.296 256.227 450.808C256.845 451.309 257.176 451.997 257.219 452.872H255.395C255.363 452.477 255.203 452.163 254.915 451.928C254.627 451.693 254.237 451.576 253.747 451.576C253.267 451.576 252.899 451.667 252.643 451.848C252.387 452.029 252.259 452.269 252.259 452.568C252.259 452.803 252.344 453 252.515 453.16C252.685 453.32 252.893 453.448 253.139 453.544C253.384 453.629 253.747 453.741 254.227 453.88C254.867 454.051 255.389 454.227 255.795 454.408C256.211 454.579 256.568 454.835 256.867 455.176C257.165 455.517 257.32 455.971 257.331 456.536C257.331 457.037 257.192 457.485 256.915 457.88C256.637 458.275 256.243 458.584 255.731 458.808C255.229 459.032 254.637 459.144 253.955 459.144ZM265.282 451.464C265.548 451.016 265.9 450.669 266.338 450.424C266.786 450.168 267.314 450.04 267.922 450.04V451.928H267.458C266.743 451.928 266.199 452.109 265.826 452.472C265.463 452.835 265.282 453.464 265.282 454.36V459H263.458V450.184H265.282V451.464ZM270.526 449.016C270.196 449.016 269.918 448.904 269.694 448.68C269.47 448.456 269.358 448.179 269.358 447.848C269.358 447.517 269.47 447.24 269.694 447.016C269.918 446.792 270.196 446.68 270.526 446.68C270.846 446.68 271.118 446.792 271.342 447.016C271.566 447.24 271.678 447.517 271.678 447.848C271.678 448.179 271.566 448.456 271.342 448.68C271.118 448.904 270.846 449.016 270.526 449.016ZM271.422 450.184V459H269.598V450.184H271.422ZM277.369 450.04C278.052 450.04 278.655 450.179 279.177 450.456C279.711 450.723 280.127 451.059 280.425 451.464V450.184H282.265V459.144C282.265 459.955 282.095 460.675 281.753 461.304C281.412 461.944 280.916 462.445 280.265 462.808C279.625 463.171 278.857 463.352 277.961 463.352C276.767 463.352 275.775 463.069 274.985 462.504C274.196 461.949 273.748 461.192 273.641 460.232H275.449C275.588 460.691 275.881 461.059 276.329 461.336C276.788 461.624 277.332 461.768 277.961 461.768C278.697 461.768 279.289 461.544 279.737 461.096C280.196 460.648 280.425 459.997 280.425 459.144V457.672C280.116 458.088 279.695 458.44 279.161 458.728C278.639 459.005 278.041 459.144 277.369 459.144C276.601 459.144 275.897 458.952 275.257 458.568C274.628 458.173 274.127 457.629 273.753 456.936C273.391 456.232 273.209 455.437 273.209 454.552C273.209 453.667 273.391 452.883 273.753 452.2C274.127 451.517 274.628 450.989 275.257 450.616C275.897 450.232 276.601 450.04 277.369 450.04ZM280.425 454.584C280.425 453.976 280.297 453.448 280.041 453C279.796 452.552 279.471 452.211 279.065 451.976C278.66 451.741 278.223 451.624 277.753 451.624C277.284 451.624 276.847 451.741 276.441 451.976C276.036 452.2 275.705 452.536 275.449 452.984C275.204 453.421 275.081 453.944 275.081 454.552C275.081 455.16 275.204 455.693 275.449 456.152C275.705 456.611 276.036 456.963 276.441 457.208C276.857 457.443 277.295 457.56 277.753 457.56C278.223 457.56 278.66 457.443 279.065 457.208C279.471 456.973 279.796 456.632 280.041 456.184C280.297 455.725 280.425 455.192 280.425 454.584ZM289.221 450.04C289.893 450.04 290.49 450.184 291.013 450.472C291.546 450.76 291.962 451.187 292.261 451.752C292.57 452.317 292.725 453 292.725 453.8V459H290.917V454.072C290.917 453.283 290.72 452.68 290.325 452.264C289.93 451.837 289.392 451.624 288.709 451.624C288.026 451.624 287.482 451.837 287.077 452.264C286.682 452.68 286.485 453.283 286.485 454.072V459H284.661V447.16H286.485V451.208C286.794 450.835 287.184 450.547 287.653 450.344C288.133 450.141 288.656 450.04 289.221 450.04ZM297.18 451.672V456.552C297.18 456.883 297.254 457.123 297.404 457.272C297.564 457.411 297.83 457.48 298.204 457.48H299.324V459H297.884C297.062 459 296.433 458.808 295.996 458.424C295.558 458.04 295.34 457.416 295.34 456.552V451.672H294.3V450.184H295.34V447.992H297.18V450.184H299.324V451.672H297.18ZM309.609 450.04C310.302 450.04 310.921 450.184 311.465 450.472C312.02 450.76 312.452 451.187 312.761 451.752C313.07 452.317 313.225 453 313.225 453.8V459H311.417V454.072C311.417 453.283 311.22 452.68 310.825 452.264C310.43 451.837 309.892 451.624 309.209 451.624C308.526 451.624 307.982 451.837 307.577 452.264C307.182 452.68 306.985 453.283 306.985 454.072V459H305.161V450.184H306.985V451.192C307.284 450.829 307.662 450.547 308.121 450.344C308.59 450.141 309.086 450.04 309.609 450.04ZM319.376 459.144C318.544 459.144 317.792 458.957 317.12 458.584C316.448 458.2 315.92 457.667 315.536 456.984C315.152 456.291 314.96 455.491 314.96 454.584C314.96 453.688 315.157 452.893 315.552 452.2C315.946 451.507 316.485 450.973 317.168 450.6C317.85 450.227 318.613 450.04 319.456 450.04C320.298 450.04 321.061 450.227 321.744 450.6C322.426 450.973 322.965 451.507 323.36 452.2C323.754 452.893 323.952 453.688 323.952 454.584C323.952 455.48 323.749 456.275 323.344 456.968C322.938 457.661 322.384 458.2 321.68 458.584C320.986 458.957 320.218 459.144 319.376 459.144ZM319.376 457.56C319.845 457.56 320.282 457.448 320.688 457.224C321.104 457 321.44 456.664 321.696 456.216C321.952 455.768 322.08 455.224 322.08 454.584C322.08 453.944 321.957 453.405 321.712 452.968C321.466 452.52 321.141 452.184 320.736 451.96C320.33 451.736 319.893 451.624 319.424 451.624C318.954 451.624 318.517 451.736 318.112 451.96C317.717 452.184 317.402 452.52 317.168 452.968C316.933 453.405 316.816 453.944 316.816 454.584C316.816 455.533 317.056 456.269 317.536 456.792C318.026 457.304 318.64 457.56 319.376 457.56ZM337.595 450.184L334.859 459H332.939L331.163 452.488L329.387 459H327.467L324.715 450.184H326.571L328.411 457.272L330.283 450.184H332.187L333.979 457.24L335.803 450.184H337.595ZM339.694 459.112C339.363 459.112 339.086 459 338.862 458.776C338.638 458.552 338.526 458.275 338.526 457.944C338.526 457.613 338.638 457.336 338.862 457.112C339.086 456.888 339.363 456.776 339.694 456.776C340.014 456.776 340.286 456.888 340.51 457.112C340.734 457.336 340.846 457.613 340.846 457.944C340.846 458.275 340.734 458.552 340.51 458.776C340.286 459 340.014 459.112 339.694 459.112ZM131.311 477.416C131.311 476.328 131.561 475.352 132.063 474.488C132.575 473.624 133.263 472.952 134.127 472.472C135.001 471.981 135.956 471.736 136.991 471.736C138.175 471.736 139.225 472.029 140.143 472.616C141.071 473.192 141.743 474.013 142.159 475.08H139.967C139.679 474.493 139.279 474.056 138.767 473.768C138.255 473.48 137.663 473.336 136.991 473.336C136.255 473.336 135.599 473.501 135.023 473.832C134.447 474.163 133.993 474.637 133.663 475.256C133.343 475.875 133.183 476.595 133.183 477.416C133.183 478.237 133.343 478.957 133.663 479.576C133.993 480.195 134.447 480.675 135.023 481.016C135.599 481.347 136.255 481.512 136.991 481.512C137.663 481.512 138.255 481.368 138.767 481.08C139.279 480.792 139.679 480.355 139.967 479.768H142.159C141.743 480.835 141.071 481.656 140.143 482.232C139.225 482.808 138.175 483.096 136.991 483.096C135.945 483.096 134.991 482.856 134.127 482.376C133.263 481.885 132.575 481.208 132.063 480.344C131.561 479.48 131.311 478.504 131.311 477.416ZM148.118 483.144C147.286 483.144 146.534 482.957 145.862 482.584C145.19 482.2 144.662 481.667 144.278 480.984C143.894 480.291 143.702 479.491 143.702 478.584C143.702 477.688 143.899 476.893 144.294 476.2C144.688 475.507 145.227 474.973 145.91 474.6C146.592 474.227 147.355 474.04 148.198 474.04C149.04 474.04 149.803 474.227 150.486 474.6C151.168 474.973 151.707 475.507 152.102 476.2C152.496 476.893 152.694 477.688 152.694 478.584C152.694 479.48 152.491 480.275 152.086 480.968C151.68 481.661 151.126 482.2 150.422 482.584C149.728 482.957 148.96 483.144 148.118 483.144ZM148.118 481.56C148.587 481.56 149.024 481.448 149.43 481.224C149.846 481 150.182 480.664 150.438 480.216C150.694 479.768 150.822 479.224 150.822 478.584C150.822 477.944 150.699 477.405 150.454 476.968C150.208 476.52 149.883 476.184 149.478 475.96C149.072 475.736 148.635 475.624 148.166 475.624C147.696 475.624 147.259 475.736 146.854 475.96C146.459 476.184 146.144 476.52 145.91 476.968C145.675 477.405 145.558 477.944 145.558 478.584C145.558 479.533 145.798 480.269 146.278 480.792C146.768 481.304 147.382 481.56 148.118 481.56ZM165.169 474.04C165.862 474.04 166.481 474.184 167.025 474.472C167.58 474.76 168.012 475.187 168.321 475.752C168.641 476.317 168.801 477 168.801 477.8V483H166.993V478.072C166.993 477.283 166.796 476.68 166.401 476.264C166.006 475.837 165.468 475.624 164.785 475.624C164.102 475.624 163.558 475.837 163.153 476.264C162.758 476.68 162.561 477.283 162.561 478.072V483H160.753V478.072C160.753 477.283 160.556 476.68 160.161 476.264C159.766 475.837 159.228 475.624 158.545 475.624C157.862 475.624 157.318 475.837 156.913 476.264C156.518 476.68 156.321 477.283 156.321 478.072V483H154.497V474.184H156.321V475.192C156.62 474.829 156.998 474.547 157.457 474.344C157.916 474.141 158.406 474.04 158.929 474.04C159.633 474.04 160.262 474.189 160.817 474.488C161.372 474.787 161.798 475.219 162.097 475.784C162.364 475.251 162.78 474.829 163.345 474.52C163.91 474.2 164.518 474.04 165.169 474.04ZM179.202 478.376C179.202 478.707 179.181 479.005 179.138 479.272H172.402C172.455 479.976 172.717 480.541 173.186 480.968C173.655 481.395 174.231 481.608 174.914 481.608C175.895 481.608 176.589 481.197 176.994 480.376H178.962C178.695 481.187 178.21 481.853 177.506 482.376C176.813 482.888 175.949 483.144 174.914 483.144C174.071 483.144 173.314 482.957 172.642 482.584C171.981 482.2 171.458 481.667 171.074 480.984C170.701 480.291 170.514 479.491 170.514 478.584C170.514 477.677 170.695 476.883 171.058 476.2C171.431 475.507 171.949 474.973 172.61 474.6C173.282 474.227 174.05 474.04 174.914 474.04C175.746 474.04 176.487 474.221 177.138 474.584C177.789 474.947 178.295 475.459 178.658 476.12C179.021 476.771 179.202 477.523 179.202 478.376ZM177.298 477.8C177.287 477.128 177.047 476.589 176.578 476.184C176.109 475.779 175.527 475.576 174.834 475.576C174.205 475.576 173.666 475.779 173.218 476.184C172.77 476.579 172.503 477.117 172.418 477.8H177.298ZM186.977 475.496C187.286 475.069 187.708 474.723 188.241 474.456C188.785 474.179 189.388 474.04 190.049 474.04C190.828 474.04 191.532 474.227 192.161 474.6C192.79 474.973 193.286 475.507 193.649 476.2C194.012 476.883 194.193 477.667 194.193 478.552C194.193 479.437 194.012 480.232 193.649 480.936C193.286 481.629 192.785 482.173 192.145 482.568C191.516 482.952 190.817 483.144 190.049 483.144C189.366 483.144 188.758 483.011 188.225 482.744C187.702 482.477 187.286 482.136 186.977 481.72V483H185.153V471.16H186.977V475.496ZM192.337 478.552C192.337 477.944 192.209 477.421 191.953 476.984C191.708 476.536 191.377 476.2 190.961 475.976C190.556 475.741 190.118 475.624 189.649 475.624C189.19 475.624 188.753 475.741 188.337 475.976C187.932 476.211 187.601 476.552 187.345 477C187.1 477.448 186.977 477.976 186.977 478.584C186.977 479.192 187.1 479.725 187.345 480.184C187.601 480.632 187.932 480.973 188.337 481.208C188.753 481.443 189.19 481.56 189.649 481.56C190.118 481.56 190.556 481.443 190.961 481.208C191.377 480.963 191.708 480.611 191.953 480.152C192.209 479.693 192.337 479.16 192.337 478.552ZM195.389 478.552C195.389 477.667 195.57 476.883 195.933 476.2C196.306 475.517 196.808 474.989 197.437 474.616C198.077 474.232 198.781 474.04 199.549 474.04C200.242 474.04 200.845 474.179 201.357 474.456C201.88 474.723 202.296 475.059 202.605 475.464V474.184H204.445V483H202.605V481.688C202.296 482.104 201.874 482.451 201.341 482.728C200.808 483.005 200.2 483.144 199.517 483.144C198.76 483.144 198.066 482.952 197.437 482.568C196.808 482.173 196.306 481.629 195.933 480.936C195.57 480.232 195.389 479.437 195.389 478.552ZM202.605 478.584C202.605 477.976 202.477 477.448 202.221 477C201.976 476.552 201.65 476.211 201.245 475.976C200.84 475.741 200.402 475.624 199.933 475.624C199.464 475.624 199.026 475.741 198.621 475.976C198.216 476.2 197.885 476.536 197.629 476.984C197.384 477.421 197.261 477.944 197.261 478.552C197.261 479.16 197.384 479.693 197.629 480.152C197.885 480.611 198.216 480.963 198.621 481.208C199.037 481.443 199.474 481.56 199.933 481.56C200.402 481.56 200.84 481.443 201.245 481.208C201.65 480.973 201.976 480.632 202.221 480.184C202.477 479.725 202.605 479.192 202.605 478.584ZM206.233 478.584C206.233 477.677 206.414 476.883 206.777 476.2C207.15 475.507 207.662 474.973 208.313 474.6C208.963 474.227 209.71 474.04 210.553 474.04C211.619 474.04 212.499 474.296 213.193 474.808C213.897 475.309 214.371 476.029 214.617 476.968H212.649C212.489 476.531 212.233 476.189 211.881 475.944C211.529 475.699 211.086 475.576 210.553 475.576C209.806 475.576 209.209 475.843 208.761 476.376C208.323 476.899 208.105 477.635 208.105 478.584C208.105 479.533 208.323 480.275 208.761 480.808C209.209 481.341 209.806 481.608 210.553 481.608C211.609 481.608 212.307 481.144 212.649 480.216H214.617C214.361 481.112 213.881 481.827 213.177 482.36C212.473 482.883 211.598 483.144 210.553 483.144C209.71 483.144 208.963 482.957 208.313 482.584C207.662 482.2 207.15 481.667 206.777 480.984C206.414 480.291 206.233 479.491 206.233 478.584ZM219.922 478.6L223.986 483H221.522L218.258 479.208V483H216.434V471.16H218.258V478.04L221.458 474.184H223.986L219.922 478.6ZM231.274 471.16V483H229.45V471.16H231.274ZM233.061 478.552C233.061 477.667 233.242 476.883 233.605 476.2C233.978 475.517 234.479 474.989 235.109 474.616C235.749 474.232 236.453 474.04 237.221 474.04C237.914 474.04 238.517 474.179 239.029 474.456C239.551 474.723 239.967 475.059 240.277 475.464V474.184H242.117V483H240.277V481.688C239.967 482.104 239.546 482.451 239.013 482.728C238.479 483.005 237.871 483.144 237.189 483.144C236.431 483.144 235.738 482.952 235.109 482.568C234.479 482.173 233.978 481.629 233.605 480.936C233.242 480.232 233.061 479.437 233.061 478.552ZM240.277 478.584C240.277 477.976 240.149 477.448 239.893 477C239.647 476.552 239.322 476.211 238.917 475.976C238.511 475.741 238.074 475.624 237.605 475.624C237.135 475.624 236.698 475.741 236.293 475.976C235.887 476.2 235.557 476.536 235.301 476.984C235.055 477.421 234.933 477.944 234.933 478.552C234.933 479.16 235.055 479.693 235.301 480.152C235.557 480.611 235.887 480.963 236.293 481.208C236.709 481.443 237.146 481.56 237.605 481.56C238.074 481.56 238.511 481.443 238.917 481.208C239.322 480.973 239.647 480.632 239.893 480.184C240.149 479.725 240.277 479.192 240.277 478.584ZM246.641 475.672V480.552C246.641 480.883 246.715 481.123 246.865 481.272C247.025 481.411 247.291 481.48 247.665 481.48H248.785V483H247.345C246.523 483 245.894 482.808 245.457 482.424C245.019 482.04 244.801 481.416 244.801 480.552V475.672H243.761V474.184H244.801V471.992H246.641V474.184H248.785V475.672H246.641ZM258.546 478.376C258.546 478.707 258.524 479.005 258.482 479.272H251.746C251.799 479.976 252.06 480.541 252.53 480.968C252.999 481.395 253.575 481.608 254.258 481.608C255.239 481.608 255.932 481.197 256.338 480.376H258.306C258.039 481.187 257.554 481.853 256.85 482.376C256.156 482.888 255.292 483.144 254.258 483.144C253.415 483.144 252.658 482.957 251.986 482.584C251.324 482.2 250.802 481.667 250.418 480.984C250.044 480.291 249.858 479.491 249.858 478.584C249.858 477.677 250.039 476.883 250.402 476.2C250.775 475.507 251.292 474.973 251.954 474.6C252.626 474.227 253.394 474.04 254.258 474.04C255.09 474.04 255.831 474.221 256.482 474.584C257.132 474.947 257.639 475.459 258.002 476.12C258.364 476.771 258.546 477.523 258.546 478.376ZM256.642 477.8C256.631 477.128 256.391 476.589 255.922 476.184C255.452 475.779 254.871 475.576 254.178 475.576C253.548 475.576 253.01 475.779 252.562 476.184C252.114 476.579 251.847 477.117 251.762 477.8H256.642ZM262.165 475.464C262.431 475.016 262.783 474.669 263.221 474.424C263.669 474.168 264.197 474.04 264.805 474.04V475.928H264.341C263.626 475.928 263.082 476.109 262.709 476.472C262.346 476.835 262.165 477.464 262.165 478.36V483H260.341V474.184H262.165V475.464Z" fill="#9E9E9E"/>
</g>
<defs>
<filter id="filter0_d_1219_6551" x="-30" y="-10" width="456" height="597" filterUnits="userSpaceOnUse" color-interpolation-filters="sRGB">
<feFlood flood-opacity="0" result="BackgroundImageFix"/>
<feColorMatrix in="SourceAlpha" type="matrix" values="0 0 0 0 0 0 0 0 0 0 0 0 0 0 0 0 0 0 127 0" result="hardAlpha"/>
<feOffset dy="20"/>
<feGaussianBlur stdDeviation="15"/>
<feComposite in2="hardAlpha" operator="out"/>
<feColorMatrix type="matrix" values="0 0 0 0 0.570833 0 0 0 0 0.570833 0 0 0 0 0.570833 0 0 0 0.19 0"/>
<feBlend mode="normal" in2="BackgroundImageFix" result="effect1_dropShadow_1219_6551"/>
<feBlend mode="normal" in="SourceGraphic" in2="effect1_dropShadow_1219_6551" result="shape"/>
</filter>
<linearGradient id="paint0_linear_1219_6551" x1="188.121" y1="36.8788" x2="190.457" y2="437.23" gradientUnits="userSpaceOnUse">
<stop stop-color="#F2F2F2"/>
<stop offset="1" stop-color="#EFEFEF"/>
</linearGradient>
</defs>
</svg>
